#N canvas 827 239 1065 981 12;
#X declare -path cyclone -path else;
#X floatatom 876 631 12 0 0 0 - - - 16;
#X obj 876 568 * 4;
#X text 923 555 4 beats;
#X obj 876 673 s all-len;
#X obj 702 203 bng 54 250 50 0 empty empty clear 15 6 0 10 #e4e4e4 #4d4d4d #373737;
#X obj 702 296 bng 54 250 50 0 empty empty play 15 6 0 10 #e4e4e4 #4d4d4d #373737;
#X text 923 583 4 bar;
#X obj 876 596 * 4;
#X obj 796 214 r mode;
#X msg 796 249 set \$1;
#X obj 796 391 s mode;
#X obj 797 280 vradio 23 1 0 4 empty empty empty 0 -8 0 10 #e3dfd9 #5a5a5a #5a5a5a 0;
#X text 833 275 play;
#X text 833 301 rec;
#X text 833 328 clear;
#X text 833 349 sync;
#X obj 702 267 s all-clear;
#X obj 702 360 s all-sync;
#X obj 7 5 sampler-absPres 1 32 0 24;
#X obj 7 121 sampler-absPres 2 33 1 25;
#X obj 7 353 sampler-absPres 4 35 3 27;
#X obj 912 733 loadbang;
#N canvas 705 263 947 652 midi 0;
#X obj 154 183 prepend set;
#X msg 154 215 7 29 0;
#X obj 25 225 route 7;
#X obj 291 417 > 64;
#X obj 269 477 > 64;
#X obj 523 477 > 64;
#X obj 547 417 > 64;
#X obj 1817 262 route 57 58 59 60;
#X obj 1740 658 s midiout;
#X obj 1740 475 r mode;
#X obj 1955 300 > 64;
#X obj 2003 300 > 64;
#X obj 1955 360 sel 1;
#X obj 2003 360 sel 1;
#X msg 1957 397 0;
#X msg 1998 397 1;
#X obj 1739 300 > 64;
#X obj 1848 300 > 64;
#X obj 1848 444 s mode;
#X msg 1740 539 127 0 0 0;
#X msg 1821 539 0 127 0 0;
#X obj 1740 504 sel 0 1 2 3, f 50;
#N canvas 733 172 450 300 tmpMode 0;
#X obj 134 108 r mode;
#X obj 127 161 i;
#X obj 99 53 sel 1 0;
#X obj 102 202 i;
#X obj 69 91 t b b;
#X obj 99 18 inlet;
#X obj 52 179 outlet;
#X obj 61 246 outlet;
#X connect 0 0 1 1;
#X connect 1 0 3 1;
#X connect 2 0 4 0;
#X connect 2 1 3 0;
#X connect 3 0 7 0;
#X connect 4 0 6 0;
#X connect 4 1 1 0;
#X connect 5 0 2 0;
#X restore 1739 360 pd tmpMode;
#N canvas 733 172 450 300 tmpMode 0;
#X obj 211 117 r mode;
#X obj 204 170 i;
#X obj 176 62 sel 1 0;
#X obj 179 211 i;
#X obj 146 100 t b b;
#X obj 176 27 inlet;
#X obj 129 188 outlet;
#X obj 138 255 outlet;
#X connect 0 0 1 1;
#X connect 1 0 3 1;
#X connect 2 0 4 0;
#X connect 2 1 3 0;
#X connect 3 0 7 0;
#X connect 4 0 6 0;
#X connect 4 1 1 0;
#X connect 5 0 2 0;
#X restore 1848 360 pd tmpMode;
#X obj 25 477 / 127;
#X obj 47 417 / 127;
#X obj 25 510 s 1-in+;
#X obj 269 510 s 1-punch+;
#X obj 809 507 s 1-speed+;
#X obj 1373 510 s 1-intens+;
#X obj 47 447 s 2-in+;
#X obj 291 447 s 2-punch+;
#X obj 833 481 s 2-speed+;
#X obj 1395 446 s 2-intens+;
#X obj 547 446 s 2-recplay+;
#X obj 523 510 s 1-recplay+;
#X text 1817 223 mode;
#X obj 70 355 / 127;
#X obj 93 295 / 127;
#X obj 93 325 s 4-in+;
#X obj 71 388 s 3-in+;
#X obj 333 295 > 64;
#X obj 311 355 > 64;
#X obj 333 325 s 4-punch+;
#X obj 311 388 s 3-punch+;
#X obj 572 356 > 64;
#X obj 596 296 > 64;
#X obj 572 389 s 3-recplay+;
#X obj 596 325 s 4-recplay+;
#X obj 882 433 s 4-speed+;
#X obj 858 458 s 3-speed+;
#X obj 1417 389 s 3-intens+;
#X obj 1439 325 s 4-intens+;
#X obj 270 92 r midiout;
#X obj 1373 477 / 64;
#X obj 1395 417 / 64;
#X obj 1417 356 / 64;
#X obj 1439 296 / 64;
#X obj 25 32 else/osc.receive 9000;
#X obj 41 125 print MIDI_IN;
#X obj 25 152 else/osc.route /midi;
#X obj 443 170 else/osc.send 9001;
#X msg 469 123 connect 127.0.0.1 9001;
#X obj 470 96 loadbang;
#X obj 443 205 tgl 19 0 empty empty empty 0 -10 0 12 #fcfcfc #000000 #000000 0 1;
#X obj 268 127 cyclone/prepend /midi_raw;
#X obj 25 260 route 41 42 43 44 45 46 47 48;
#X obj 130 477 / 127;
#X obj 152 417 / 127;
#X obj 175 355 / 127;
#X obj 198 295 / 127;
#X obj 130 510 s 5-in+;
#X obj 152 447 s 6-in+;
#X obj 176 388 s 7-in+;
#X obj 198 325 s 8-in+;
#X obj 267 259 route 89 90 91 92 93 94 95 96;
#X obj 393 417 > 64;
#X obj 371 477 > 64;
#X obj 435 295 > 64;
#X obj 413 355 > 64;
#X obj 371 510 s 5-punch+;
#X obj 393 447 s 6-punch+;
#X obj 413 388 s 7-punch+;
#X obj 435 325 s 8-punch+;
#X obj 523 260 route 97 98 99 100 101 102 103 104;
#X obj 635 477 > 64;
#X obj 659 417 > 64;
#X obj 684 356 > 64;
#X obj 708 296 > 64;
#X obj 708 325 s 8-recplay+;
#X obj 684 389 s 7-recplay+;
#X obj 659 446 s 6-recplay+;
#X obj 635 510 s 5-recplay+;
#X obj 809 260 route 13 14 15 16 17 18 19 20, f 31;
#X obj 981 329 s 8-speed+;
#X obj 956 353 s 7-speed+;
#X obj 932 379 s 6-speed+;
#X obj 908 406 s 5-speed+;
#X obj 1071 260 route 29 30 31 32 33 34 35 36;
#X obj 1488 477 / 64;
#X obj 1510 417 / 64;
#X obj 1532 356 / 64;
#X obj 1554 296 / 64;
#X obj 1554 325 s 8-intens+;
#X obj 1532 389 s 7-intens+;
#X obj 1510 446 s 6-intens+;
#X obj 1488 510 s 5-intens+;
#X obj 1373 260 route 21 22 23 24 25 26 27 28;
#X obj 47 92 gate;
#X obj 47 54 tgl 25 0 empty empty empty 17 7 0 10 #e3dfd9 #5a5a5a #5a5a5a 0 1;
#X text 80 60 debug midi in;
#X obj 2273 375 s tap;
#X obj 2273 337 sel 127;
#X obj 2177 486 r clic;
#X msg 2179 591 0;
#X msg 2177 634 240 0 32 41 2 17 120 6 45 \$1 247;
#X obj 2177 521 t b b, f 11;
#X obj 2177 554 del 100;
#X msg 1740 607 240 0 32 41 2 17 120 6 42 \$1 43 \$2 40 \$3 41 \$4 247;
#X msg 2232 591 127;
#X obj 2210 338 > 63;
#X obj 2177 665 s midiout;
#X obj 2210 375 s shift;
#N canvas 733 172 450 300 shift_clearall 0;
#X obj 257 69 inlet;
#X obj 175 157 outlet;
#X obj 175 109 cyclone/gate 2 1;
#X obj 175 79 + 1;
#X obj 175 46 r shift;
#X obj 258 168 s all-clear;
#X obj 258 140 bang;
#X connect 0 0 2 1;
#X connect 2 0 1 0;
#X connect 2 1 6 0;
#X connect 3 0 2 0;
#X connect 4 0 3 0;
#X connect 6 0 5 0;
#X restore 1739 332 pd shift_clearall;
#X msg 1739 399 2;
#X msg 1850 397 3;
#X msg 1902 539 0 0 127 0;
#X msg 1983 539 0 0 0 127;
#X msg 2399 591 0;
#X obj 2397 665 s midiout;
#X obj 2397 486 r shift;
#X obj 2397 554 sel 0 1;
#X obj 2397 521 > 0, f 11;
#X msg 2397 634 240 0 32 41 2 17 120 6 44 \$1 247;
#X msg 2452 591 61;
#X obj 2210 285 route 114 115 116 117;
#X obj 2431 397 s all-sync;
#X obj 2343 397 s all-stop;
#X obj 2343 360 sel 127;
#X obj 2431 360 sel 127;
#X obj 1053 507 s chase1-int;
#X obj 1077 481 s chase1-spd;
#X obj 1102 458 s chase2-int;
#X obj 1126 433 s chase2-spd;
#X obj 1163 399 s gen-int;
#X obj 1184 360 s gen-spd;
#X obj 1211 329 s gen-pos;
#X obj 1235 300 s gen-rnd;
#X connect 0 0 1 0;
#X connect 2 0 66 0;
#X connect 3 0 31 0;
#X connect 4 0 27 0;
#X connect 5 0 35 0;
#X connect 6 0 34 0;
#X connect 7 0 16 0;
#X connect 7 1 17 0;
#X connect 7 2 10 0;
#X connect 7 3 11 0;
#X connect 7 4 135 0;
#X connect 9 0 21 0;
#X connect 10 0 12 0;
#X connect 11 0 13 0;
#X connect 12 0 14 0;
#X connect 13 0 15 0;
#X connect 14 0 18 0;
#X connect 15 0 18 0;
#X connect 16 0 123 0;
#X connect 17 0 23 0;
#X connect 19 0 118 0;
#X connect 20 0 118 0;
#X connect 21 0 19 0;
#X connect 21 1 20 0;
#X connect 21 2 126 0;
#X connect 21 3 127 0;
#X connect 22 0 124 0;
#X connect 22 1 18 0;
#X connect 23 0 125 0;
#X connect 23 1 18 0;
#X connect 24 0 26 0;
#X connect 25 0 30 0;
#X connect 37 0 40 0;
#X connect 38 0 39 0;
#X connect 41 0 43 0;
#X connect 42 0 44 0;
#X connect 45 0 47 0;
#X connect 46 0 48 0;
#X connect 53 0 65 0;
#X connect 54 0 29 0;
#X connect 55 0 33 0;
#X connect 56 0 51 0;
#X connect 57 0 52 0;
#X connect 58 0 60 0;
#X connect 58 0 108 1;
#X connect 60 0 0 0;
#X connect 60 0 2 0;
#X connect 61 0 64 0;
#X connect 62 0 61 0;
#X connect 63 0 62 0;
#X connect 65 0 61 0;
#X connect 66 0 24 0;
#X connect 66 1 25 0;
#X connect 66 2 37 0;
#X connect 66 3 38 0;
#X connect 66 4 67 0;
#X connect 66 5 68 0;
#X connect 66 6 69 0;
#X connect 66 7 70 0;
#X connect 66 8 75 0;
#X connect 67 0 71 0;
#X connect 68 0 72 0;
#X connect 69 0 73 0;
#X connect 70 0 74 0;
#X connect 75 0 4 0;
#X connect 75 1 3 0;
#X connect 75 2 42 0;
#X connect 75 3 41 0;
#X connect 75 4 77 0;
#X connect 75 5 76 0;
#X connect 75 6 79 0;
#X connect 75 7 78 0;
#X connect 75 8 84 0;
#X connect 76 0 81 0;
#X connect 77 0 80 0;
#X connect 78 0 83 0;
#X connect 79 0 82 0;
#X connect 84 0 5 0;
#X connect 84 1 6 0;
#X connect 84 2 45 0;
#X connect 84 3 46 0;
#X connect 84 4 85 0;
#X connect 84 5 86 0;
#X connect 84 6 87 0;
#X connect 84 7 88 0;
#X connect 84 8 93 0;
#X connect 85 0 92 0;
#X connect 86 0 91 0;
#X connect 87 0 90 0;
#X connect 88 0 89 0;
#X connect 93 0 28 0;
#X connect 93 1 32 0;
#X connect 93 2 50 0;
#X connect 93 3 49 0;
#X connect 93 4 97 0;
#X connect 93 5 96 0;
#X connect 93 6 95 0;
#X connect 93 7 94 0;
#X connect 93 8 98 0;
#X connect 98 0 140 0;
#X connect 98 1 141 0;
#X connect 98 2 142 0;
#X connect 98 3 143 0;
#X connect 98 4 144 0;
#X connect 98 5 145 0;
#X connect 98 6 146 0;
#X connect 98 7 147 0;
#X connect 98 8 107 0;
#X connect 99 0 106 0;
#X connect 100 0 105 0;
#X connect 101 0 104 0;
#X connect 102 0 103 0;
#X connect 107 0 54 0;
#X connect 107 1 55 0;
#X connect 107 2 56 0;
#X connect 107 3 57 0;
#X connect 107 4 99 0;
#X connect 107 5 100 0;
#X connect 107 6 101 0;
#X connect 107 7 102 0;
#X connect 107 8 7 0;
#X connect 108 0 59 0;
#X connect 109 0 108 0;
#X connect 112 0 111 0;
#X connect 113 0 116 0;
#X connect 114 0 115 0;
#X connect 115 0 121 0;
#X connect 116 0 117 0;
#X connect 116 1 119 0;
#X connect 117 0 114 0;
#X connect 118 0 8 0;
#X connect 119 0 115 0;
#X connect 120 0 122 0;
#X connect 123 0 22 0;
#X connect 124 0 18 0;
#X connect 125 0 18 0;
#X connect 126 0 118 0;
#X connect 127 0 118 0;
#X connect 128 0 133 0;
#X connect 130 0 132 0;
#X connect 131 0 128 0;
#X connect 131 1 134 0;
#X connect 132 0 131 0;
#X connect 133 0 129 0;
#X connect 134 0 133 0;
#X connect 135 0 120 0;
#X connect 135 1 112 0;
#X connect 135 2 138 0;
#X connect 135 3 139 0;
#X connect 138 0 137 0;
#X connect 139 0 136 0;
#X restore 788 821 pd midi;
#X obj 7 237 sampler-absPres 3 34 2 26;
#N canvas 607 381 1029 618 sendOSC 0;
#X obj 369 -24 i;
#X obj 329 574 tgl 19 0 empty empty empty 0 -8 0 10 #dfdfdf #000000 #000000 0 1;
#X text 355 570 <-- connection status;
#X obj 369 -292 inlet~;
#X obj 475 -292 inlet~;
#X obj 475 -25 i;
#X obj 329 366 gate 1 1;
#X msg 30 507 disconnect;
#X obj 2099 589 tgl 19 0 empty empty empty 0 -8 0 10 #dfdfdf #000000 #000000 0 1;
#X obj 2125 492 loadbang;
#X obj 2190 57 print OSC_IN;
#X msg 2095 216 connect \$1 8000, f 16;
#X msg 2099 465 /getIP;
#X obj 329 604 print Klax_1_connected;
#X obj 358 217 list;
#X obj 30 170 metro 20;
#X obj 369 -230 * 255;
#X obj 475 -230 * 255;
#X obj 369 -51 clip 0 255;
#X obj 475 -51 clip 0 255;
#X obj 2095 185 cyclone/tosymbol;
#X obj 2094 21 else/osc.receive 8001;
#X obj 2095 93 else/osc.route /ip;
#X obj 2099 553 else/osc.send 8000;
#X obj 329 545 else/osc.send 8000;
#X obj 358 249 cyclone/prepend /motorAll;
#X obj 30 134 cyclone/loadmess 1;
#X obj 369 -262 else/s2f~ 10;
#X obj 475 -262 else/s2f~ 10;
#X obj 369 170 cyclone/pak 0 0 0 0;
#X obj 2095 129 route Klax_1 Klax_2 Klax_3 Klax_4 Klax_5;
#X msg 2125 528 connect 10.0.0.255 8000;
#X text 2377 525 KLAX5 10.0.0.15;
#X text 2377 431 KLAX1 10.0.0.11;
#X text 2377 454 KLAX2 10.0.0.12;
#X text 2377 501 KLAX3 10.0.0.13;
#X text 2376 479 KLAX4 10.0.0.14;
#X obj 2099 406 cyclone/loadmess 1;
#X obj 2099 437 metro 5000;
#X msg 2213 492 disconnect;
#X msg 2220 216 connect \$1 8000, f 16;
#X obj 2220 185 cyclone/tosymbol;
#X obj 2095 249 print KLAX1;
#X obj 2220 249 print KLAX2;
#X obj 800 -26 i;
#X obj 800 -293 inlet~;
#X obj 906 -293 inlet~;
#X obj 906 -27 i;
#X obj 800 -231 * 255;
#X obj 906 -231 * 255;
#X obj 800 -53 clip 0 255;
#X obj 906 -53 clip 0 255;
#X obj 800 -263 else/s2f~ 10;
#X obj 906 -263 else/s2f~ 10;
#X obj 800 170 cyclone/pak 0 0 0 0;
#X obj 760 583 tgl 19 0 empty empty empty 0 -8 0 10 #dfdfdf #000000 #000000 0 1;
#X text 786 579 <-- connection status;
#X obj 760 366 gate 1 1;
#X obj 789 217 list;
#X obj 760 545 else/osc.send 8000;
#X obj 789 249 cyclone/prepend /motorAll;
#X msg 358 507 connect 10.0.0.11 8000;
#X msg 786 507 connect 10.0.0.12 8000;
#X msg 2145 589 connect 192.168.1.255 8000;
#X msg 2349 216 connect \$1 8000, f 16;
#X obj 2349 185 cyclone/tosymbol;
#X msg 2474 216 connect \$1 8000, f 16;
#X obj 2474 185 cyclone/tosymbol;
#X obj 2349 249 print KLAX3;
#X obj 2474 249 print KLAX4;
#X msg 786 453 connect 192.168.1.15 8000;
#X msg 358 453 connect 192.168.1.72 8000;
#X obj 1395 574 tgl 19 0 empty empty empty 0 -8 0 10 #dfdfdf #000000 #000000 0 1;
#X text 1421 570 <-- connection status;
#X obj 30 285 tgl 25 0 empty empty empty 17 7 0 10 #e3dfd9 #5a5a5a #5a5a5a 0 1;
#X obj 1395 366 gate 1 1;
#X obj 1395 545 else/osc.send 8000;
#X msg 1428 507 connect 10.0.0.15 8000;
#X obj 1239 -35 i;
#X obj 1239 -302 inlet~;
#X obj 1345 -302 inlet~;
#X obj 1345 -36 i;
#X obj 1239 -240 * 255;
#X obj 1345 -240 * 255;
#X obj 1239 -62 clip 0 255;
#X obj 1345 -62 clip 0 255;
#X obj 1239 -272 else/s2f~ 10;
#X obj 1345 -272 else/s2f~ 10;
#X obj 1239 170 cyclone/pak 0 0 0 0;
#X obj 1228 217 list;
#X obj 1228 249 cyclone/prepend /motorAll;
#X obj 1648 -34 i;
#X obj 1648 -301 inlet~;
#X obj 1754 -301 inlet~;
#X obj 1754 -35 i;
#X obj 1648 -239 * 255;
#X obj 1754 -239 * 255;
#X obj 1648 -61 clip 0 255;
#X obj 1754 -61 clip 0 255;
#X obj 1648 -271 else/s2f~ 10;
#X obj 1754 -271 else/s2f~ 10;
#X obj 1648 170 cyclone/pak 0 0 0 0;
#X obj 1637 217 list;
#X obj 1637 249 cyclone/prepend /motorAll;
#X obj 1199 574 tgl 19 0 empty empty empty 0 -8 0 10 #dfdfdf #000000 #000000 0 1;
#X text 1225 570 <-- connection status;
#X obj 1199 366 gate 1 1;
#X obj 1199 545 else/osc.send 8000;
#X obj 760 613 print Klax_2_connected;
#X obj 1199 604 print Klax_3_connected;
#X msg 1225 507 connect 10.0.0.13 8000;
#X obj 1591 574 tgl 19 0 empty empty empty 0 -8 0 10 #dfdfdf #000000 #000000 0 1;
#X text 1634 570 <-- connection status;
#X obj 1608 366 gate 1 1;
#X obj 1608 545 else/osc.send 8000;
#X obj 1608 604 print Klax_4_connected;
#X msg 1634 507 connect 10.0.0.14 8000;
#X obj 30 377 loadbang;
#X obj 30 410 del 5000;
#X obj 30 447 button 25 25 228 228 228 77 77 77 2;
#X obj 1395 604 print Klax_5_connected;
#X text 64 447 connect;
#X text 64 282 connect;
#X msg 2607 216 connect \$1 8000, f 16;
#X obj 2607 185 cyclone/tosymbol;
#X obj 2607 249 print KLAX5;
#X obj 438 100 else/selector 2 1;
#X obj 473 130 else/selector 2 1;
#X obj 868 100 else/selector 2 1;
#X obj 903 130 else/selector 2 1;
#X obj 1310 100 else/selector 2 1;
#X obj 1345 130 else/selector 2 1;
#X obj 1719 100 else/selector 2 1;
#X obj 1754 130 else/selector 2 1;
#X obj 747 -400 unpack 0 0 0 0 0 0 0 0, f 171;
#X obj 747 -433 r chaseLuxVal;
#X obj 1886 57 r chaseLux, f 10;
#X obj 392 25 * 2;
#X obj 392 55 clip 0 255;
#X obj 488 25 * 2;
#X obj 488 55 clip 0 255;
#X obj 829 15 * 2;
#X obj 829 45 clip 0 255;
#X obj 903 15 * 2;
#X obj 903 45 clip 0 255;
#X obj 1261 19 * 2;
#X obj 1261 52 clip 0 255;
#X obj 1371 12 * 2;
#X obj 1371 45 clip 0 255;
#X obj 1677 12 * 2;
#X obj 1677 45 clip 0 255;
#X obj 1772 12 * 2;
#X obj 1772 45 clip 0 255;
#X obj 622 -503 unpack 0 0 0 0 0 0 0 0, f 171;
#X obj 622 -536 r genVal;
#X obj 369 -105 +;
#X obj 475 -105 +;
#X obj 800 -107 +;
#X obj 906 -107 +;
#X obj 1239 -116 +;
#X obj 1345 -116 +;
#X obj 1648 -115 +;
#X obj 1754 -115 +;
#X obj 369 -158 else/hot;
#X obj 475 -158 else/hot;
#X obj 799 -166 else/hot;
#X obj 906 -167 else/hot;
#X obj 1237 -172 else/hot;
#X obj 1342 -172 else/hot;
#X obj 1649 -174 else/hot;
#X obj 1754 -174 else/hot;
#X connect 0 0 29 0;
#X connect 0 0 137 0;
#X connect 1 0 13 0;
#X connect 3 0 27 0;
#X connect 4 0 28 0;
#X connect 5 0 29 1;
#X connect 5 0 139 0;
#X connect 6 0 24 0;
#X connect 7 0 59 0 32.................J....Xr...fB....FK...LA....;
#X connect 7 0 76 0 32.................J....nG...fB....5A...LA....;
#X connect 7 0 24 0 32.................J....rR...fB....qD...LA....;
#X connect 7 0 107 0 32.................J....zGA..fB....8Q...LA....;
#X connect 7 0 114 0 32.................J....TfA..fB....EX...LA....;
#X connect 9 0 31 0;
#X connect 11 0 42 0;
#X connect 11 0 24 0;
#X connect 12 0 23 0;
#X connect 14 0 25 0;
#X connect 15 0 14 0 32.................N....fT...fC....HE...vA....;
#X connect 15 0 58 0 32.................N....Lt...fC....iK...vA....;
#X connect 15 0 89 0 32.................N....nIA..fC....ZR...vA....;
#X connect 15 0 102 0 32.................N....HhA..fC....hX...vA....;
#X connect 16 0 163 0;
#X connect 17 0 164 0;
#X connect 18 0 0 0;
#X connect 19 0 5 0;
#X connect 20 0 11 0;
#X connect 21 0 10 0;
#X connect 21 0 22 0;
#X connect 22 0 30 0;
#X connect 23 0 8 0;
#X connect 24 0 1 0;
#X connect 25 0 6 1;
#X connect 26 0 15 0;
#X connect 27 0 16 0;
#X connect 28 0 17 0;
#X connect 29 0 14 1;
#X connect 30 0 20 0;
#X connect 30 1 41 0;
#X connect 30 2 65 0;
#X connect 30 3 67 0;
#X connect 30 4 124 0;
#X connect 31 0 23 0;
#X connect 37 0 38 0;
#X connect 38 0 12 0;
#X connect 39 0 23 0;
#X connect 40 0 43 0;
#X connect 40 0 59 0;
#X connect 41 0 40 0;
#X connect 44 0 54 0;
#X connect 44 0 141 0;
#X connect 45 0 52 0;
#X connect 46 0 53 0;
#X connect 47 0 54 1;
#X connect 47 0 143 0;
#X connect 48 0 165 0;
#X connect 49 0 166 0;
#X connect 50 0 44 0;
#X connect 51 0 47 0;
#X connect 52 0 48 0;
#X connect 53 0 49 0;
#X connect 54 0 58 1;
#X connect 55 0 108 0;
#X connect 57 0 59 0;
#X connect 58 0 60 0;
#X connect 59 0 55 0;
#X connect 60 0 57 1;
#X connect 61 0 24 0;
#X connect 62 0 59 0;
#X connect 63 0 23 0;
#X connect 64 0 68 0;
#X connect 64 0 107 0;
#X connect 65 0 64 0;
#X connect 66 0 69 0;
#X connect 66 0 114 0;
#X connect 67 0 66 0;
#X connect 70 0 59 0;
#X connect 71 0 24 0;
#X connect 72 0 120 0;
#X connect 74 0 75 0 32.................S....nG...vD....5A...fC....;
#X connect 74 0 6 0 32.................S....rR...vD....qD...fC....;
#X connect 74 0 106 0 32.................S....zGA..vD....8Q...fC....;
#X connect 74 0 57 0 32.................S....Xr...vD....FK...fC....;
#X connect 74 0 113 0 32.................S....TfA..vD....EX...fC....;
#X connect 75 0 76 0;
#X connect 76 0 72 0;
#X connect 77 0 76 0;
#X connect 78 0 88 0;
#X connect 78 0 145 0;
#X connect 79 0 86 0;
#X connect 80 0 87 0;
#X connect 81 0 88 1;
#X connect 81 0 147 0;
#X connect 82 0 167 0;
#X connect 83 0 168 0;
#X connect 84 0 78 0;
#X connect 85 0 81 0;
#X connect 86 0 82 0;
#X connect 87 0 83 0;
#X connect 88 0 89 1;
#X connect 89 0 90 0;
#X connect 90 0 106 1;
#X connect 90 0 75 1;
#X connect 91 0 101 0;
#X connect 91 0 149 0;
#X connect 92 0 99 0;
#X connect 93 0 100 0;
#X connect 94 0 101 1;
#X connect 94 0 151 0;
#X connect 95 0 169 0;
#X connect 96 0 170 0;
#X connect 97 0 91 0;
#X connect 98 0 94 0;
#X connect 99 0 95 0;
#X connect 100 0 96 0;
#X connect 101 0 102 1;
#X connect 102 0 103 0;
#X connect 103 0 113 1;
#X connect 104 0 109 0;
#X connect 106 0 107 0;
#X connect 107 0 104 0;
#X connect 110 0 107 0;
#X connect 111 0 115 0;
#X connect 113 0 114 0;
#X connect 114 0 111 0;
#X connect 116 0 114 0;
#X connect 117 0 118 0;
#X connect 118 0 119 0;
#X connect 119 0 116 0 32.................R....7gA..fD....eX...LB....;
#X connect 119 0 62 0 32.................R.....t...fD....fK...LB....;
#X connect 119 0 61 0 32.................R....fT...fD....HE...LB....;
#X connect 119 0 110 0 32.................S....bIA..vD....WR...LB....;
#X connect 119 0 77 0 32.................R....rI...fD....aB...LB....;
#X connect 123 0 125 0;
#X connect 123 0 76 0;
#X connect 124 0 123 0;
#X connect 126 0 29 2;
#X connect 127 0 29 3;
#X connect 128 0 54 2;
#X connect 129 0 54 3;
#X connect 130 0 88 2;
#X connect 131 0 88 3;
#X connect 132 0 101 2;
#X connect 133 0 101 3;
#X connect 134 0 126 1;
#X connect 134 1 127 1;
#X connect 134 2 128 1;
#X connect 134 3 129 1;
#X connect 134 4 130 1;
#X connect 134 5 131 1;
#X connect 134 6 132 1;
#X connect 134 7 133 1;
#X connect 135 0 134 0;
#X connect 136 0 127 2 32.................H....3r9++OB....Nq+++iA....;
#X connect 136 0 129 2 32.................L....vG+++OC....7w+++iA....;
#X connect 136 0 131 2 32.................H....Xi+++OB....13+++iA....;
#X connect 136 0 133 2 32.................L....77+++OC....O++++iA....;
#X connect 136 0 126 2 32.................L....rp9++OC....qp+++iA....;
#X connect 136 0 128 2 32.................H....jE+++OB....Yw+++iA....;
#X connect 136 0 130 2 32.................L....Lg+++OC....S3+++iA....;
#X connect 136 0 132 2 32.................H....v5+++OB....r9+++iA....;
#X connect 137 0 138 0;
#X connect 138 0 126 0;
#X connect 139 0 140 0;
#X connect 140 0 127 0;
#X connect 141 0 142 0;
#X connect 142 0 128 0;
#X connect 143 0 144 0;
#X connect 144 0 129 0;
#X connect 145 0 146 0;
#X connect 146 0 130 0;
#X connect 147 0 148 0;
#X connect 148 0 131 0;
#X connect 149 0 150 0;
#X connect 150 0 132 0;
#X connect 151 0 152 0;
#X connect 152 0 133 0;
#X connect 153 0 163 1;
#X connect 153 1 164 1;
#X connect 153 2 165 1;
#X connect 153 3 166 1;
#X connect 153 4 167 1;
#X connect 153 5 168 1;
#X connect 153 6 169 1;
#X connect 153 7 170 1;
#X connect 154 0 153 0;
#X connect 155 0 18 0;
#X connect 156 0 19 0;
#X connect 157 0 50 0;
#X connect 158 0 51 0;
#X connect 159 0 84 0;
#X connect 160 0 85 0;
#X connect 161 0 97 0;
#X connect 162 0 98 0;
#X connect 163 0 155 0;
#X connect 163 1 155 1;
#X connect 164 0 156 0;
#X connect 164 1 156 1;
#X connect 165 0 157 0;
#X connect 165 1 157 1;
#X connect 166 0 158 0;
#X connect 166 1 158 1;
#X connect 167 0 159 0;
#X connect 167 1 159 1;
#X connect 168 0 160 0;
#X connect 168 1 160 1;
#X connect 169 0 161 0;
#X connect 169 1 161 1;
#X connect 170 0 162 0;
#X connect 170 1 162 1;
#X restore 7 952 pd sendOSC;
#X f 44;
#X obj 876 528 else/bpm -samps;
#X obj 699 25 declare -path cyclone -path else;
#X obj 7 469 sampler-absPres 5 36 4 28;
#X obj 7 585 sampler-absPres 6 37 5 29;
#X obj 7 817 sampler-absPres 8 39 7 31;
#N canvas 0 22 450 300 tap 0;
#X obj 866 429 timer;
#X msg 932 370 tempo 1 msec;
#X floatatom 866 465 11 0 0 0 - - - 12;
#X obj 866 354 t b b;
#X obj 932 337 loadbang;
#X obj 866 501 t f f;
#X obj 882 604 gate 2, f 10;
#X obj 882 539 > 2000;
#X obj 882 570 + 1;
#X msg 933 633 zlclear;
#X obj 882 704 cyclone/zl.median;
#X obj 882 734 cyclone/!/ 60000;
#X obj 882 667 cyclone/zl.stream 3;
#X obj 739 763 metro;
#X obj 739 798 s clic;
#X obj 727 667 loadbang;
#X msg 730 729 1;
#X obj 866 324 inlet;
#X obj 882 770 s glob-bpm;
#X floatatom 1003 734 5 0 0 0 - - - 12;
#X floatatom 981 770 5 0 0 0 - - - 12;
#X obj 772 729 !/ 60000;
#X obj 772 694 r glob-bpm+;
#X connect 0 0 2 0;
#X connect 1 0 0 0;
#X connect 2 0 5 0;
#X connect 3 0 0 0;
#X connect 3 1 0 1;
#X connect 4 0 1 0;
#X connect 5 0 6 1 32.................E....HD...PA....BA...zD....;
#X connect 5 1 7 0;
#X connect 6 0 12 0;
#X connect 6 1 9 0;
#X connect 7 0 8 0;
#X connect 8 0 6 0;
#X connect 9 0 12 0;
#X connect 10 0 11 0;
#X connect 10 0 19 0;
#X connect 11 0 18 0;
#X connect 11 0 20 0;
#X connect 12 0 10 0;
#X connect 13 0 14 0;
#X connect 15 0 16 0;
#X connect 16 0 13 0;
#X connect 17 0 3 0;
#X connect 21 0 13 1;
#X connect 22 0 21 0;
#X restore 729 821 pd tap;
#X obj 729 738 bng 68 250 50 0 empty tap TAP\ TEMPO 6 7 0 10 #e4e4e4 #4d4d4d #373737;
#X floatatom 763 851 5 0 0 1 BPM glob-bpm glob-bpm+ 24;
#X obj 729 856 bng 25 250 50 0 empty clic empty 17 7 0 10 #e4e4e4 #4d4d4d #373737;
#X obj 702 391 bng 54 250 50 0 empty empty stop 15 6 0 10 #e4e4e4 #4d4d4d #373737;
#X obj 702 455 s all-stop;
#X obj 876 495 r glob-bpm+;
#X obj 831 588 button 25 25 228 228 228 77 77 77 0;
#X obj 699 58 tgl 25 0 empty shift shift 34 12 0 10 #e4e4e4 #4d4d4d #373737 0 1;
#X obj 7 701 sampler-absPres 7 38 6 30;
#X msg 912 762 \; pd dsp 1 \; glob-bpm 120;
#X obj 1025 821 s max-len;
#X msg 1025 762 300000;
#X text 790 86 TODO: length per track / décrochage speed / retour led /resync length, f 15;
#X obj 1025 791 ms2samps2;
#N canvas 0 22 450 300 chaserLux 0;
#X obj 1374 123 r chase2-spd;
#X obj 824 273 r chase2-int;
#X obj 263 273 r chase1-int;
#X obj 619 508 s chaseLux;
#X obj 831 918 s chaseLuxVal;
#X obj 825 469 random 255;
#X obj 825 393 metro 20;
#X obj 714 93 knob 50 0 127 0 0 empty empty #E4E4E4 #B7B7B7 #4D4D4D 1 0 0 0 1 270 0 0 0;
#X obj 824 319 > 0;
#X obj 619 93 knob 50 0 127 0 0 empty empty #E4E4E4 #B7B7B7 #4D4D4D 1 0 0 0 1 270 0 0 0;
#X obj 619 155 s chase2-int;
#X obj 1505 414 * 2;
#X floatatom 1374 221 5 0 0 0 - - - 12;
#X obj 914 469 random 255;
#X obj 1003 469 random 255;
#X obj 1092 469 random 255;
#X obj 831 727 pack 0 0 0 0 0 0 0 0, f 92;
#X obj 1181 469 random 255;
#X obj 1270 469 random 255;
#X obj 1359 469 random 255;
#X obj 1448 469 random 255;
#X floatatom 1374 155 5 0 0 0 - - - 12;
#X obj 714 155 s chase2-spd;
#X obj 619 446 ||;
#X obj 639 402 t b f;
#X obj 247 327 > 0;
#X floatatom 619 478 5 0 0 0 - - - 12;
#X msg 941 820 0 0 0 0 0 0 0 0;
#X obj 941 786 cyclone/prepend set;
#X obj 1374 183 cyclone/scale 0 127 500 20 0.5;
#X obj 825 354 change;
#X obj 229 740 cyclone/zl.rot;
#X msg 211 702 \$1 0 0 0 0 0 0 0;
#X floatatom 308 508 5 0 0 0 - - - 12;
#X floatatom 308 442 5 0 0 0 - - - 12;
#X obj 308 470 cyclone/scale 0 127 500 20 0.5;
#X obj 308 410 r chase1-spd;
#X obj 229 566 metro 20;
#X obj 238 364 change;
#X obj 441 574 * 2;
#X obj 342 702 counter 2 0 7;
#X obj 229 613 t b b;
#X obj 229 661 i, f 9;
#X msg 237 811 0 0 0 0 0 0 0 0;
#X obj 237 777 cyclone/prepend set;
#X obj 645 767 expr;
#X obj 851 599 unpack 0 0 0 0 0 0 0 0, f 91;
#X obj 831 661 +;
#X obj 924 661 +;
#X obj 1003 661 +;
#X obj 1097 662 +;
#X obj 1188 663 +;
#X obj 1275 664 +;
#X obj 1362 664 +;
#X obj 1455 665 +;
#X obj 810 860 list;
#X obj 743 820 metro 20;
#X obj 743 748 loadbang;
#X msg 746 786 1;
#X obj 370 829 t b l;
#X obj 767 319 sel 0;
#X msg 769 554 0;
#X obj 160 339 sel 0;
#X msg 149 672 0;
#X obj 154 506 t b b;
#X obj 513 93 knob 50 0 127 0 0 empty empty #E4E4E4 #B7B7B7 #4D4D4D 1 0 0 0 1 270 0 0 0;
#X obj 418 93 knob 50 0 127 0 0 empty empty #E4E4E4 #B7B7B7 #4D4D4D 1 0 0 0 1 270 0 0 0;
#X obj 418 155 s chase1-int;
#X obj 513 155 s chase1-spd;
#X connect 0 0 21 0;
#X connect 1 0 8 0;
#X connect 1 0 11 0 48.................M....DG...PC....wA...3.....pB...N....fp....T....;
#X connect 1 0 60 0;
#X connect 2 0 25 0;
#X connect 2 0 39 0;
#X connect 2 0 62 0;
#X connect 5 0 47 0;
#X connect 6 0 5 0 32.................c.........PG.........jC....;
#X connect 6 0 13 0 32.................S....jE...vD....YA...jC....;
#X connect 6 0 14 0 32.................c....HK...PG....xB...jC....;
#X connect 6 0 15 0 32.................S....rP...vD....KD...jC....;
#X connect 6 0 17 0 32.................S....PV...vD....jE...jC....;
#X connect 6 0 18 0 32.................c....za...PG....8F...jC....;
#X connect 6 0 19 0 32.................S....Xg...vD....VH...jC....;
#X connect 6 0 20 0 32.................S....7l...vD....uI...jC....;
#X connect 7 0 22 0;
#X connect 8 0 24 0;
#X connect 8 0 30 0;
#X connect 9 0 10 0;
#X connect 11 0 20 1 32.................R....3++++uD....9++++SB....;
#X connect 11 0 19 1 32.................L....T5+++OC....k9+++SB....;
#X connect 11 0 18 1 32.................R....vz+++uD....L8+++SB....;
#X connect 11 0 15 1 32.................L....no+++OC....Z5+++SB....;
#X connect 11 0 17 1 32.................L....Lu+++OC....y6+++SB....;
#X connect 11 0 14 1 32.................R....Dj+++uD....A4+++SB....;
#X connect 11 0 13 1 32.................L....fd+++OC....n2+++SB....;
#X connect 11 0 5 1 32.................L....7X+++OC....O1+++SB....;
#X connect 13 0 48 0;
#X connect 14 0 49 0;
#X connect 15 0 50 0;
#X connect 16 0 28 0;
#X connect 16 0 55 1;
#X connect 17 0 51 0;
#X connect 18 0 52 0;
#X connect 19 0 53 0;
#X connect 20 0 54 0;
#X connect 21 0 29 0;
#X connect 23 0 26 0;
#X connect 24 0 23 0;
#X connect 24 1 23 1;
#X connect 25 0 23 0;
#X connect 25 0 38 0;
#X connect 26 0 3 0;
#X connect 28 0 27 0;
#X connect 29 0 6 1;
#X connect 29 0 12 0;
#X connect 30 0 6 0;
#X connect 31 0 44 0;
#X connect 31 0 59 0;
#X connect 32 0 31 0;
#X connect 34 0 35 0;
#X connect 35 0 33 0;
#X connect 35 0 37 1;
#X connect 36 0 34 0;
#X connect 37 0 41 0;
#X connect 38 0 37 0;
#X connect 39 0 42 1;
#X connect 40 0 31 1;
#X connect 41 0 42 0;
#X connect 41 1 40 0;
#X connect 42 0 32 0;
#X connect 44 0 43 0;
#X connect 46 0 47 1;
#X connect 46 1 48 1;
#X connect 46 2 49 1;
#X connect 46 3 50 1;
#X connect 46 4 51 1;
#X connect 46 5 52 1;
#X connect 46 6 53 1;
#X connect 46 7 54 1;
#X connect 47 0 16 0;
#X connect 48 0 16 1;
#X connect 49 0 16 2;
#X connect 50 0 16 3;
#X connect 51 0 16 4;
#X connect 52 0 16 5;
#X connect 53 0 16 6;
#X connect 54 0 16 7;
#X connect 55 0 4 0;
#X connect 56 0 55 0;
#X connect 57 0 58 0;
#X connect 58 0 56 0;
#X connect 59 0 47 0;
#X connect 59 0 48 0;
#X connect 59 0 49 0;
#X connect 59 0 50 0;
#X connect 59 0 51 0;
#X connect 59 0 52 0;
#X connect 59 0 53 0;
#X connect 59 0 54 0;
#X connect 59 1 46 0;
#X connect 60 0 61 0;
#X connect 61 0 47 0;
#X connect 61 0 48 0;
#X connect 61 0 49 0;
#X connect 61 0 50 0;
#X connect 61 0 51 0;
#X connect 61 0 52 0;
#X connect 61 0 53 0;
#X connect 61 0 54 0;
#X connect 62 0 64 0;
#X connect 63 0 42 0;
#X connect 64 0 61 0;
#X connect 64 1 63 0;
#X connect 65 0 68 0;
#X connect 66 0 67 0;
#X restore 912 276 pd chaserLux;
#N canvas 0 22 450 300 generator 0;
#X obj 1658 192 r gen-pos;
#X obj 1463 246 r gen-rnd;
#X obj 1329 429 bng 25 250 50 0 empty empty empty 17 7 0 10 #e4e4e4 #4d4d4d #373737;
#X obj 1753 923 s genVal;
#X obj 751 491 metro;
#X obj 694 423 loadbang;
#X msg 697 457 1;
#X obj 767 174 !/ 60000;
#X obj 767 140 r glob-bpm+;
#X obj 751 526 s clic2;
#X obj 1329 398 r clic2;
#X obj 767 398 else/hot;
#X obj 767 447 * 1;
#X obj 1125 862 s gen-spd;
#X obj 859 254 r gen-spd;
#X obj 1125 797 knob 50 0 127 0 0 empty empty #E4E4E4 #B7B7B7 #4D4D4D 1 0 0 0 1 270 0 0 0;
#N canvas 733 172 450 300 conv 0;
#X obj 115 131 i;
#X obj 115 63 inlet;
#X obj 115 196 outlet;
#X obj 153 196 outlet;
#X obj 192 196 outlet;
#X obj 230 196 outlet;
#X obj 269 196 outlet;
#X obj 307 196 outlet;
#X obj 346 196 outlet;
#X obj 115 98 / 14;
#X obj 384 196 outlet;
#X obj 423 196 outlet;
#X obj 115 165 sel 0 1 2 3 4 5 6 7 8, f 53;
#X connect 0 0 12 0;
#X connect 1 0 9 0;
#X connect 9 0 0 0;
#X connect 12 0 2 0;
#X connect 12 1 3 0;
#X connect 12 2 4 0;
#X connect 12 3 5 0;
#X connect 12 4 6 0;
#X connect 12 5 7 0;
#X connect 12 6 8 0;
#X connect 12 7 10 0;
#X connect 12 8 11 0;
#X restore 859 287 pd conv;
#X f 62;
#X obj 802 365 f, f 11;
#X floatatom 836 398 5 0 0 0 - - - 12;
#X obj 802 237 bng 25 250 50 0 empty empty empty 17 7 0 10 #e4e4e4 #4d4d4d #373737;
#X obj 802 206 r clic;
#X obj 1475 799 cyclone/zl.rot;
#X obj 1485 399 * 2;
#X msg 1587 979 0 0 0 0 0 0 0 0;
#X obj 1587 947 cyclone/prepend set;
#X obj 1485 353 r gen-int;
#X obj 1038 797 knob 50 0 127 0 0 empty empty #E4E4E4 #B7B7B7 #4D4D4D 1 0 0 0 1 270 0 0 0;
#X obj 1038 862 s gen-int;
#X obj 1209 797 knob 50 0 127 0 0 empty empty #E4E4E4 #B7B7B7 #4D4D4D 1 0 0 0 1 270 0 0 0;
#X obj 1209 862 s gen-pos;
#X floatatom 1662 221 5 0 0 0 - - - 12;
#X obj 1662 247 / 16;
#X obj 1475 767 else/hot;
#X obj 1485 471 i;
#X obj 1341 578 del 100;
#X obj 1200 589 / 127;
#X obj 1200 556 r gen-rnd;
#X obj 1164 656 *;
#X obj 1164 620 else/hot;
#X obj 1329 483 t b b b;
#X obj 1300 862 s gen-rnd;
#X obj 1300 797 knob 50 0 127 0 0 empty empty #E4E4E4 #B7B7B7 #4D4D4D 1 0 0 0 1 270 0 0 0;
#X floatatom 1164 726 5 0 0 0 - - - 12;
#X obj 1164 526 random 200;
#X obj 1841 330 / 127;
#X obj 1841 297 r gen-rnd;
#X obj 1805 397 *;
#X obj 1805 361 else/hot;
#X obj 1658 344 +;
#X obj 1660 293 else/hot;
#X obj 1805 231 random 16;
#X obj 1805 272 - 8;
#X obj 1658 388 % 8;
#X obj 1655 613 else/hot;
#X obj 825 483 s gateMax;
#X obj 1200 471 r gateMax;
#X obj 1164 689 + 80;
#X obj 2013 649 pack 0 0 0 0 0 0 0 0;
#X obj 2104 597 random 255;
#X obj 2195 597 random 255;
#X obj 2286 597 random 255;
#X obj 2375 597 random 255;
#X obj 2466 597 random 255;
#X obj 2557 597 random 255;
#X obj 2648 597 random 255;
#X obj 2013 463 r clic2;
#X obj 2649 484 r gen-rnd;
#X obj 1655 578 / 3;
#X obj 1475 689 pack 0 0 0 0, f 42;
#X msg 1346 607 0 0 0 0;
#X msg 1475 726 \$1 \$2 \$3 \$4 0 \$4 \$3 \$2;
#X obj 1745 578 / 4;
#X obj 1745 613 else/hot;
#X obj 2648 518 scale 64 127 0 255;
#X obj 1565 578 / 2;
#X obj 1933 429 scale 0 1 0 1 3;
#X obj 1565 613 else/hot;
#X obj 1565 649 * 1;
#X obj 1655 649 * 1;
#X obj 1745 649 * 1;
#X obj 434 520 vsl 22 80 0 255 0 0 dsfsdgs sddfjhgj empty 0 -9 0 10 #dcdcdc #000000 #000000 0 1;
#X obj 315 185 else/lfo 0.1;
#X floatatom 292 236 5 0 0 0 - - - 12;
#X floatatom 302 127 5 0 0 0 - - - 12;
#X obj 434 464 clip 0 255;
#X floatatom 453 181 5 0 0 0 - - - 12;
#X obj 434 332 pow 1;
#X obj 375 256 / 127;
#X obj 434 396 * 255;
#X msg 861 319 1;
#X msg 912 319 0.75;
#X msg 964 319 0.66666;
#X msg 1013 319 1.0.5;
#X msg 1068 319 0.333333;
#X msg 1116 365 0.25;
#X msg 1168 353 0.167778;
#X msg 1219 319 0.125;
#X msg 1271 319 0.0625;
#X obj 1089 647 * 0.25;
#X obj 1061 690 clip 20 2000;
#X obj 1781 846 list-add;
#X obj 1859 1002 multi.vsl 200 127 0 127 8 empty empty empty 255 255 255 220 220 220 0 0 0 0 0 0 holder holder 0 0 0 19.5 0 0 0 0;
#X obj 1859 961 list-emath /;
#X msg 1914 923 2 2 2 2 2 2 2 2;
#X obj 1914 888 loadbang;
#X obj 2013 597 random 255;
#X obj 2664 411 loadbang;
#X msg 2666 445 0;
#X connect 0 0 30 0;
#X connect 0 0 31 0;
#X connect 2 0 39 0;
#X connect 4 0 9 0;
#X connect 5 0 6 0;
#X connect 6 0 4 0;
#X connect 7 0 11 0;
#X connect 8 0 7 0;
#X connect 10 0 2 0;
#X connect 11 0 12 0;
#X connect 11 1 12 1;
#X connect 12 0 4 1;
#X connect 12 0 54 0;
#X connect 14 0 16 0;
#X connect 15 0 13 0;
#X connect 16 0 89 0;
#X connect 16 1 90 0;
#X connect 16 2 91 0;
#X connect 16 3 92 0;
#X connect 16 4 93 0;
#X connect 16 5 94 0;
#X connect 16 6 95 0;
#X connect 16 7 96 0;
#X connect 16 8 97 0;
#X connect 17 0 11 1;
#X connect 17 0 18 0;
#X connect 19 0 17 0;
#X connect 20 0 19 0;
#X connect 21 0 100 0;
#X connect 22 0 33 1;
#X connect 24 0 23 0;
#X connect 25 0 22 0;
#X connect 26 0 27 0;
#X connect 28 0 29 0;
#X connect 31 0 52 0;
#X connect 32 0 21 0;
#X connect 32 1 21 1;
#X connect 33 0 67 0;
#X connect 33 0 68 0;
#X connect 33 0 71 0;
#X connect 33 0 74 0;
#X connect 34 0 69 0;
#X connect 35 0 38 1;
#X connect 36 0 35 0;
#X connect 37 0 56 0;
#X connect 38 0 37 0;
#X connect 38 1 37 1;
#X connect 39 0 34 0;
#X connect 39 1 33 0;
#X connect 39 2 43 0;
#X connect 39 2 50 0;
#X connect 41 0 40 0;
#X connect 43 0 38 0;
#X connect 44 0 47 1;
#X connect 44 0 75 0;
#X connect 45 0 44 0;
#X connect 46 0 49 1;
#X connect 47 0 46 0;
#X connect 47 1 46 1;
#X connect 49 0 48 0;
#X connect 49 1 48 1;
#X connect 50 0 51 0;
#X connect 51 0 47 0;
#X connect 52 0 32 1;
#X connect 53 0 78 0;
#X connect 53 1 78 1;
#X connect 55 0 43 1;
#X connect 55 0 98 0;
#X connect 56 0 42 0;
#X connect 56 0 34 1;
#X connect 57 0 100 1;
#X connect 58 0 57 1;
#X connect 59 0 57 2;
#X connect 60 0 57 3;
#X connect 61 0 57 4;
#X connect 62 0 57 5;
#X connect 63 0 57 6;
#X connect 64 0 57 7;
#X connect 65 0 58 0;
#X connect 65 0 59 0;
#X connect 65 0 60 0;
#X connect 65 0 61 0;
#X connect 65 0 62 0;
#X connect 65 0 63 0;
#X connect 65 0 64 0;
#X connect 65 0 105 0;
#X connect 66 0 73 0;
#X connect 67 0 53 0;
#X connect 68 0 70 0;
#X connect 69 0 68 0;
#X connect 70 0 32 0;
#X connect 71 0 72 0;
#X connect 72 0 79 0;
#X connect 72 1 79 1;
#X connect 73 0 59 1;
#X connect 73 0 58 1;
#X connect 73 0 60 1;
#X connect 73 0 61 1;
#X connect 73 0 62 1;
#X connect 73 0 63 1;
#X connect 73 0 64 1;
#X connect 73 0 105 1;
#X connect 74 0 76 0;
#X connect 75 0 72 1;
#X connect 75 0 53 1;
#X connect 75 0 76 1;
#X connect 76 0 77 0;
#X connect 76 1 77 1;
#X connect 77 0 68 1;
#X connect 78 0 68 2;
#X connect 79 0 68 3;
#X connect 81 0 82 0;
#X connect 81 0 87 0;
#X connect 83 0 81 0;
#X connect 84 0 80 0;
#X connect 85 0 86 1;
#X connect 86 0 88 0;
#X connect 87 0 86 0;
#X connect 88 0 84 0;
#X connect 89 0 17 1;
#X connect 90 0 17 1;
#X connect 91 0 17 1;
#X connect 92 0 17 1;
#X connect 93 0 17 1;
#X connect 94 0 17 1;
#X connect 95 0 17 1;
#X connect 96 0 17 1;
#X connect 97 0 17 1;
#X connect 98 0 99 0;
#X connect 99 0 56 1;
#X connect 100 0 24 0;
#X connect 100 0 3 0;
#X connect 102 0 101 0;
#X connect 103 0 102 1;
#X connect 104 0 103 0;
#X connect 105 0 57 0;
#X connect 106 0 107 0;
#X connect 107 0 73 0;
#X restore 912 303 pd generator;
#X obj 1237 248 s gen-spd;
#X obj 1237 183 knob 50 0 127 0 0 empty empty #E4E4E4 #B7B7B7 #4D4D4D 1 0 0 0 1 270 0 0 0;
#X obj 1150 183 knob 50 0 127 0 0 empty empty #E4E4E4 #B7B7B7 #4D4D4D 1 0 0 0 1 270 0 0 0;
#X obj 1150 248 s gen-int;
#X obj 1321 183 knob 50 0 127 0 0 empty empty #E4E4E4 #B7B7B7 #4D4D4D 1 0 0 0 1 270 0 0 0;
#X obj 1321 248 s gen-pos;
#X obj 1412 248 s gen-rnd;
#X obj 1412 183 knob 50 0 127 0 0 empty empty #E4E4E4 #B7B7B7 #4D4D4D 1 0 0 0 1 270 0 0 0;
#X obj 1414 58 knob 50 0 127 0 0 empty empty #E4E4E4 #B7B7B7 #4D4D4D 1 0 0 0 1 270 0 0 0;
#X obj 1319 58 knob 50 0 127 0 0 empty empty #E4E4E4 #B7B7B7 #4D4D4D 1 0 0 0 1 270 0 0 0;
#X obj 1319 120 s chase2-int;
#X obj 1414 120 s chase2-spd;
#X obj 1213 58 knob 50 0 127 0 0 empty empty #E4E4E4 #B7B7B7 #4D4D4D 1 0 0 0 1 270 0 0 0;
#X obj 1118 58 knob 50 0 127 0 0 empty empty #E4E4E4 #B7B7B7 #4D4D4D 1 0 0 0 1 270 0 0 0;
#X obj 1118 120 s chase1-int;
#X obj 1213 120 s chase1-spd;
#X connect 0 0 3 0;
#X connect 1 0 7 0;
#X connect 4 0 16 0;
#X connect 5 0 17 0;
#X connect 7 0 0 0;
#X connect 8 0 9 0;
#X connect 9 0 11 0;
#X connect 11 0 10 0;
#X connect 18 0 24 0;
#X connect 19 0 24 1;
#X connect 20 0 24 3;
#X connect 21 0 40 0;
#X connect 21 0 42 0;
#X connect 23 0 24 2;
#X connect 25 0 1 0;
#X connect 27 0 24 4;
#X connect 28 0 24 5;
#X connect 29 0 24 7;
#X connect 31 0 30 0;
#X connect 34 0 35 0;
#X connect 36 0 25 0;
#X connect 37 0 0 0;
#X connect 39 0 24 6;
#X connect 42 0 44 0;
#X connect 44 0 41 0;
#X connect 48 0 47 0;
#X connect 49 0 50 0;
#X connect 51 0 52 0;
#X connect 54 0 53 0;
#X connect 55 0 58 0;
#X connect 56 0 57 0;
#X connect 59 0 62 0;
#X connect 60 0 61 0;
#X coords 0 0 1 1 1075 976 0;
