#N canvas 827 239 830 497 12;
#X obj 25 188 samplerate~;
#X obj 25 155 bng 25 250 50 0 empty empty empty 17 7 0 10 #e4e4e4 #4d4d4d #373737;
#X msg 35 875 \; pd dsp \$1;
#X text 71 839 DSP on/off;
#X obj 37 840 tgl 21 0 empty empty empty 0 -11 0 12 #fcfcfc #000000 #000000 0 1;
#X obj 520 939 dac~ 1 2, f 10;
#X floatatom 186 453 5 0 0 0 - - - 12;
#X floatatom 186 617 12 0 0 0 - - - 16;
#X obj 186 554 * 4;
#X obj 186 514 bpm -samps;
#X text 233 545 4 beats;
#X obj 186 415 bng 25 250 50 0 empty empty empty 17 7 0 10 #e4e4e4 #4d4d4d #373737;
#X obj 528 611 gain~ 1 0 20 0 0.455518;
#A saved;
#X obj 1136 611 gain~ 1 0 20 0 0.689191;
#A saved;
#N canvas 733 172 450 300 clicTrack 0;
#X obj 716 319 imp~;
#X obj 712 243 / 60;
#X floatatom 716 273 5 0 0 0 - - - 12;
#X obj 713 358 impseq~ 1 0.25 0.25 0.1;
#X obj 724 408 outlet~;
#X obj 724 198 r glob-bpm;
#X connect 0 0 3 0;
#X connect 1 0 2 0;
#X connect 2 0 0 0;
#X connect 3 0 4 0;
#X connect 5 0 1 0;
#X restore 1135 582 pd clicTrack;
#N canvas 733 172 450 300 oscil 0;
#X obj 572 406 mtof~;
#X obj 739 393 *~ 0.1;
#X obj 580 502 *~;
#X obj 737 357 >~ 0;
#X obj 577 251 inlet~;
#X obj 580 530 outlet~;
#X obj 647 406 *~ 0.1;
#X obj 647 370 cycle~ 5;
#X obj 580 466 tri~;
#X obj 563 283 scale~ 0 1 36 110;
#X obj 419 338 mscale;
#X obj 450 265 r scale;
#X obj 419 240 r root;
#X obj 563 316 s2f~ 1;
#X obj 563 370 f2s~ 1;
#X connect 0 0 8 0;
#X connect 1 0 2 1;
#X connect 2 0 5 0;
#X connect 3 0 1 0;
#X connect 4 0 3 0;
#X connect 4 0 9 0;
#X connect 6 0 8 2;
#X connect 7 0 6 0;
#X connect 8 0 2 0;
#X connect 9 0 13 0;
#X connect 10 0 14 0;
#X connect 11 0 10 2;
#X connect 12 0 10 1;
#X connect 13 0 10 0;
#X connect 14 0 0 0;
#X restore 528 582 pd oscil;
#X obj 25 128 loadbang;
#X floatatom 25 216 5 0 0 0 - - - 16;
#X obj 25 244 * 60;
#X text 71 238 1 min;
#X text 859 805 time ms;
#X text 932 805 feedback;
#X obj 859 829 else/knob 41 10 10000 2 10 empty empty #dfdfdf #afafaf black 1 0 0 0 1 320 0 0 10;
#X obj 932 829 else/knob 41 -0.9 0.9 0 0 empty empty #dfdfdf #afafaf black 1 0 0 0 1 320 0 0 0;
#X floatatom 261 792 11 0 0 0 - - - 12;
#X obj 261 653 samps2ms;
#X obj 787 829 else/knob 41 0 1 0 0 empty empty #dfdfdf #afafaf black 1 0 0 0 1 320 0 0 0;
#X obj 709 829 else/knob 41 100 5000 2 100 empty empty #dfdfdf #afafaf black 1 0 0 0 1 320 0 0 100;
#X obj 278 719 t b f;
#X floatatom 278 684 5 0 0 0 - - - 12;
#X obj 217 486 s glob-bpm;
#X obj 642 829 else/knob 41 0 1 0 0.5 empty empty #dfdfdf #afafaf black 1 0 0 0 1 320 0 0 0;
#X obj 25 272 s init-length;
#X obj 186 659 s all-len;
#X obj 672 611 gain~ 1 0 20 0 0.439462;
#A saved;
#N canvas 733 172 450 300 oscil 0;
#X obj 577 360 mtof~;
#X obj 739 393 *~ 0.1;
#X obj 603 631 *~;
#X obj 737 357 >~ 0;
#X obj 577 187 inlet~;
#X obj 603 659 outlet~;
#X obj 566 228 scale~ 0 1 36 110;
#X obj 422 286 mscale;
#X obj 453 213 r scale;
#X obj 422 188 r root;
#X obj 566 264 s2f~ 1;
#X obj 566 318 f2s~ 1;
#X obj 580 466 sine~;
#X obj 580 561 fold~;
#X obj 598 512 *~;
#X obj 647 370 cycle~ 0.3;
#X obj 671 413 *~ 2;
#X obj 645 457 +~ 2;
#X connect 0 0 12 0;
#X connect 1 0 2 1;
#X connect 2 0 5 0;
#X connect 3 0 1 0;
#X connect 4 0 3 0;
#X connect 4 0 6 0;
#X connect 6 0 10 0;
#X connect 7 0 11 0;
#X connect 8 0 7 2;
#X connect 9 0 7 1;
#X connect 10 0 7 0;
#X connect 11 0 0 0;
#X connect 12 0 14 0;
#X connect 13 0 2 0;
#X connect 14 0 13 0;
#X connect 15 0 16 0;
#X connect 15 0 12 2;
#X connect 16 0 17 0;
#X connect 17 0 14 1;
#X restore 672 582 pd oscil;
#X obj 523 729 pan2~;
#X obj 569 694 else/f2s~ 10;
#X obj 496 799 +~;
#X obj 576 799 +~;
#X obj 667 729 pan2~;
#X obj 1131 729 pan2~;
#X text 642 805 dry/wet;
#X text 714 805 cutoff;
#X text 787 805 reson;
#X obj 156 67 bng 42 250 50 0 empty empty empty 17 7 0 10 #e4e4e4 #4d4d4d #373737;
#X text 235 33 sync;
#X text 163 33 clear;
#X obj 235 67 bng 42 250 50 0 empty empty empty 17 7 0 10 #e4e4e4 #4d4d4d #373737;
#X obj 35 426 s root;
#X obj 35 716 s scale;
#X floatatom 35 394 5 0 0 0 - - - 12;
#X text 233 573 4 bar;
#X obj 186 582 * 4;
#X obj 261 763 / 16;
#X msg 35 644 0 3 5 7 9 11;
#X msg 35 609 0 4 7 10;
#X msg 35 538 0 2 4 5 7 9 10;
#X msg 35 573 0 2 4 5 7 9 11;
#X msg 35 502 0 2 3 5 7 9 10;
#X msg 35 680 0 3 5 7 11;
#X obj 156 187 r mode;
#X msg 156 222 set \$1;
#X obj 156 364 s mode;
#X text 168 839 TODO;
#X obj 157 253 vradio 23 1 0 4 empty empty empty 0 -8 0 10 #e3dfd9 #5a5a5a #5a5a5a 0;
#X text 193 252 play;
#X text 193 278 rec;
#X text 193 305 clear;
#X text 193 326 sync;
#X obj 35 467 loadbang;
#X obj 156 131 s all-clear;
#X obj 235 131 s all-sync;
#X obj 429 82 sampler-absPres 1 32 0 24;
#X obj 429 290 sampler-absPres 2 33 1 25;
#N canvas 733 172 450 300 delay 0;
#X floatatom 860 727 7 0 0 0 - - - 0;
#X floatatom 934 728 7 -200 200 0 - - - 0;
#X floatatom 785 727 5 0 100 0 - - - 0;
#X floatatom 711 727 10 20 20000 0 - - - 0;
#X msg 785 756 reson \$1;
#X msg 711 756 cutoff \$1;
#X msg 644 756 wet \$1;
#X floatatom 644 727 5 0 100 0 - - - 0;
#X obj 485 822 else/filterdelay~ 500 0;
#X obj 512 860 else/filterdelay~ 500 0;
#X obj 498 649 inlet~;
#X obj 565 649 inlet~;
#X obj 644 675 inlet;
#X obj 711 675 inlet;
#X obj 785 675 inlet;
#X obj 860 675 inlet;
#X obj 934 675 inlet;
#X obj 485 895 outlet~;
#X obj 485 895 outlet~;
#X connect 0 0 8 1;
#X connect 0 0 9 1;
#X connect 1 0 8 2;
#X connect 1 0 9 2;
#X connect 2 0 4 0;
#X connect 3 0 5 0;
#X connect 4 0 8 0;
#X connect 4 0 9 0;
#X connect 5 0 8 0;
#X connect 5 0 9 0;
#X connect 6 0 8 0;
#X connect 6 0 9 0;
#X connect 7 0 6 0;
#X connect 8 0 17 0;
#X connect 9 0 18 0;
#X connect 10 0 8 0;
#X connect 11 0 9 0;
#X connect 12 0 7 0;
#X connect 13 0 3 0;
#X connect 14 0 2 0;
#X connect 15 0 0 0;
#X connect 16 0 1 0;
#X restore 520 898 pd delay;
#X obj 233 415 loadmess 76;
#X obj 821 290 sampler-absPres 4 35 3 27;
#X obj 812 611 gain~ 1 0 20 0 0.46024;
#A saved;
#N canvas 733 172 450 300 oscil 0;
#X obj 572 406 mtof~;
#X obj 739 393 *~ 0.1;
#X obj 580 552 *~;
#X obj 737 357 >~ 0;
#X obj 577 251 inlet~;
#X obj 580 580 outlet~;
#X obj 563 283 scale~ 0 1 36 110;
#X obj 419 338 mscale;
#X obj 450 265 r scale;
#X obj 419 240 r root;
#X obj 563 316 s2f~ 1;
#X obj 563 370 f2s~ 1;
#X obj 580 466 pulse~;
#X obj 636 435 +~ 0.5;
#X obj 647 406 *~ 0.45;
#X obj 647 370 cycle~ 0.2;
#X obj 635 333 *~ 3;
#X obj 572 435 /~ 2;
#X connect 0 0 17 0;
#X connect 1 0 2 1;
#X connect 2 0 5 0;
#X connect 3 0 1 0;
#X connect 4 0 3 0;
#X connect 4 0 6 0;
#X connect 4 0 16 0;
#X connect 6 0 10 0;
#X connect 7 0 11 0;
#X connect 8 0 7 2;
#X connect 9 0 7 1;
#X connect 10 0 7 0;
#X connect 11 0 0 0;
#X connect 12 0 2 0;
#X connect 13 0 12 1;
#X connect 14 0 13 0;
#X connect 15 0 14 0;
#X connect 16 0 15 0;
#X connect 17 0 12 0;
#X restore 812 582 pd oscil;
#X obj 959 611 gain~ 1 0 20 0 0.427503;
#A saved;
#N canvas 733 172 450 300 oscil 0;
#X obj 577 360 mtof~;
#X obj 739 393 *~ 0.1;
#X obj 595 618 *~;
#X obj 737 357 >~ 0;
#X obj 577 187 inlet~;
#X obj 595 646 outlet~;
#X obj 566 228 scale~ 0 1 36 110;
#X obj 422 286 mscale;
#X obj 453 213 r scale;
#X obj 422 188 r root;
#X obj 566 264 s2f~ 1;
#X obj 566 318 f2s~ 1;
#X obj 599 520 svf~;
#X obj 635 481 +~;
#X obj 647 370 cycle~ 10;
#X obj 647 406 *~ 0.4;
#X obj 647 325 *~ 10;
#X obj 712 497 sig~ 0.76;
#X obj 555 466 saw2~;
#X floatatom 697 559 5 0 0 0 - - - 12;
#X connect 0 0 18 0;
#X connect 0 0 13 0;
#X connect 1 0 2 1;
#X connect 2 0 5 0;
#X connect 3 0 1 0;
#X connect 4 0 3 0;
#X connect 4 0 6 0;
#X connect 4 0 16 0;
#X connect 6 0 10 0;
#X connect 7 0 11 0;
#X connect 8 0 7 2;
#X connect 9 0 7 1;
#X connect 10 0 7 0;
#X connect 11 0 0 0;
#X connect 12 2 2 0;
#X connect 13 0 12 1;
#X connect 14 0 15 0;
#X connect 15 0 13 1;
#X connect 15 0 18 2;
#X connect 16 0 14 0;
#X connect 17 0 12 2;
#X connect 18 0 12 0;
#X connect 19 0 17 0;
#X restore 958 582 pd oscil;
#X obj 807 729 pan2~;
#X obj 954 729 pan2~;
#X obj 35 810 loadbang;
#X obj 569 611 knob 50 -1 1 0 0 empty empty #E3DFD9 #968E82 #5A5A5A 1 0 0 0 1 270 0 0 0;
#X obj 709 694 else/f2s~ 10;
#X obj 709 611 knob 50 -1 1 0 0 empty empty #E3DFD9 #968E82 #5A5A5A 1 0 0 0 1 270 0 0 0;
#X obj 858 694 else/f2s~ 10;
#X obj 858 611 knob 50 -1 1 0 0 empty empty #E3DFD9 #968E82 #5A5A5A 1 0 0 0 1 270 0 0 0;
#X obj 999 694 else/f2s~ 10;
#X obj 999 611 knob 50 -1 1 0 0 empty empty #E3DFD9 #968E82 #5A5A5A 1 0 0 0 1 270 0 0 0;
#N canvas 733 172 450 300 midi 0;
#X obj 25 34 ctl.in;
#X obj 25 70 pack 0 0 0;
#X obj 25 106 zl.rev;
#X obj 127 106 prepend set;
#X msg 127 138 7 97 0;
#X obj 25 147 route 7;
#X obj 25 182 route 41 42 43 44;
#X obj 170 182 route 89 90 91 92;
#X obj 298 182 route 97 98 99 100;
#X obj 194 339 > 64;
#X obj 172 399 > 64;
#X obj 298 399 > 64;
#X obj 322 339 > 64;
#X obj 434 182 route 13 14 15 16;
#X obj 571 399 > 64;
#X obj 593 339 > 64;
#X obj 571 182 route 29 30 31 32;
#X obj 978 184 route 57 58 59 60;
#X obj 842 815 s midiout;
#X obj 842 632 r mode;
#X obj 1116 222 > 64;
#X obj 1164 222 > 64;
#X obj 1116 260 sel 1;
#X obj 1164 260 sel 1;
#X msg 1118 297 0;
#X msg 1159 297 1;
#X obj 723 182 route 21 22 23 24;
#X obj 900 222 > 64;
#X obj 1009 222 > 64;
#X obj 1009 344 s mode;
#X msg 842 696 127 0 0 0;
#X msg 923 696 0 127 0 0;
#X msg 842 764 240 0 32 41 2 17 120 6 42 \$1 247 \, 240 0 32 41 2 17 120 6 43 \$2 247 \, 240 0 32 41 2 17 120 6 40 \$3 247 \, 240 0 32 41 2 17 120 6 41 \$4 247;
#X obj 842 661 sel 0 1 2 3, f 50;
#N canvas 733 172 450 300 tmpMode 0;
#X obj 1082 312 r mode;
#X obj 1075 365 i;
#X obj 1047 257 sel 1 0;
#X obj 1050 406 i;
#X obj 1017 295 t b b;
#X obj 1047 222 inlet;
#X obj 1000 383 outlet;
#X obj 1009 450 outlet;
#X connect 0 0 1 1;
#X connect 1 0 3 1;
#X connect 2 0 4 0;
#X connect 2 1 3 0;
#X connect 3 0 7 0;
#X connect 4 0 6 0;
#X connect 4 1 1 0;
#X connect 5 0 2 0;
#X restore 900 260 pd tmpMode;
#N canvas 733 172 450 300 tmpMode 0;
#X obj 1082 312 r mode;
#X obj 1075 365 i;
#X obj 1047 257 sel 1 0;
#X obj 1050 406 i;
#X obj 1017 295 t b b;
#X obj 1047 222 inlet;
#X obj 1000 383 outlet;
#X obj 1009 450 outlet;
#X connect 0 0 1 1;
#X connect 1 0 3 1;
#X connect 2 0 4 0;
#X connect 2 1 3 0;
#X connect 3 0 7 0;
#X connect 4 0 6 0;
#X connect 4 1 1 0;
#X connect 5 0 2 0;
#X restore 1009 260 pd tmpMode;
#X msg 900 297 3;
#X msg 1011 297 2;
#X msg 1004 696 0 0 0 127;
#X msg 1085 696 0 0 127 0;
#X obj 25 399 / 127;
#X obj 47 339 / 127;
#X obj 25 432 s 1-in+;
#X obj 172 432 s 1-punch+;
#X obj 434 432 s 1-speed+;
#X obj 571 432 s 1-reverse+;
#X obj 723 432 s 1-intens+;
#X obj 47 369 s 2-in+;
#X obj 194 369 s 2-punch+;
#X obj 454 368 s 2-speed+;
#X obj 593 368 s 2-reverse+;
#X obj 745 368 s 2-intens+;
#X obj 434 399 - 63;
#X obj 454 339 - 63;
#X obj 322 368 s 2-recplay+;
#X obj 298 432 s 1-recplay+;
#X text 978 146 mode;
#X obj 70 277 / 127;
#X obj 93 217 / 127;
#X obj 93 247 s 4-in+;
#X obj 71 310 s 3-in+;
#X obj 236 217 > 64;
#X obj 214 277 > 64;
#X obj 236 247 s 4-punch+;
#X obj 214 310 s 3-punch+;
#X obj 347 278 > 64;
#X obj 371 218 > 64;
#X obj 347 311 s 3-recplay+;
#X obj 371 247 s 4-recplay+;
#X obj 475 278 - 63;
#X obj 495 218 - 63;
#X obj 495 247 s 4-speed+;
#X obj 475 311 s 3-speed+;
#X obj 615 278 > 64;
#X obj 637 218 > 64;
#X obj 615 311 s 3-reverse+;
#X obj 637 247 s 4-reverse+;
#X obj 767 311 s 3-intens+;
#X obj 789 247 s 4-intens+;
#X obj 333 112 midiout;
#X obj 333 78 r midiout;
#X obj 723 399 / 64;
#X obj 745 339 / 64;
#X obj 767 278 / 64;
#X obj 789 218 / 64;
#X msg 25 644 set \$1;
#X obj 25 609 / 127;
#X obj 25 682 outlet;
#X msg 85 644 set \$1;
#X obj 85 609 / 127;
#X obj 85 682 outlet;
#X msg 145 644 set \$1;
#X obj 145 609 / 127;
#X obj 145 682 outlet;
#X msg 205 644 set \$1;
#X obj 205 609 / 127;
#X obj 205 682 outlet;
#X msg 265 644 set \$1;
#X obj 265 609 / 127;
#X obj 265 682 outlet;
#X obj 25 564 route 45 46 47 48 20 19 35 27 36 28, f 90;
#X obj 331 609 / 127;
#X obj 331 682 outlet;
#X obj 391 682 outlet;
#X obj 597 761 outlet;
#X obj 597 688 scale 0 127 -0.9 0.9;
#X obj 389 609 scale 0 127 100 5000;
#X obj 523 710 outlet;
#X obj 450 644 / 127;
#X obj 450 717 outlet;
#X obj 523 637 scale 0 127 10 10000 2;
#X connect 0 0 1 0;
#X connect 0 1 1 1;
#X connect 0 2 1 2;
#X connect 1 0 2 0;
#X connect 2 0 3 0;
#X connect 2 0 5 0;
#X connect 3 0 4 0;
#X connect 5 0 6 0;
#X connect 6 0 40 0;
#X connect 6 1 41 0;
#X connect 6 2 57 0;
#X connect 6 3 58 0;
#X connect 6 4 7 0;
#X connect 7 0 10 0;
#X connect 7 1 9 0;
#X connect 7 2 62 0;
#X connect 7 3 61 0;
#X connect 7 4 8 0;
#X connect 8 0 11 0;
#X connect 8 1 12 0;
#X connect 8 2 65 0;
#X connect 8 3 66 0;
#X connect 8 4 13 0;
#X connect 9 0 48 0;
#X connect 10 0 43 0;
#X connect 11 0 55 0;
#X connect 12 0 54 0;
#X connect 13 0 52 0;
#X connect 13 1 53 0;
#X connect 13 2 69 0;
#X connect 13 3 70 0;
#X connect 13 4 16 0;
#X connect 14 0 45 0;
#X connect 15 0 50 0;
#X connect 16 0 14 0;
#X connect 16 1 15 0;
#X connect 16 2 73 0;
#X connect 16 3 74 0;
#X connect 16 4 26 0;
#X connect 17 0 27 0;
#X connect 17 1 28 0;
#X connect 17 2 20 0;
#X connect 17 3 21 0;
#X connect 17 4 100 0 32.................8D...z99++eOA...su+++mV....;
#X connect 19 0 33 0;
#X connect 20 0 22 0;
#X connect 21 0 23 0;
#X connect 22 0 24 0;
#X connect 23 0 25 0;
#X connect 24 0 29 0;
#X connect 25 0 29 0;
#X connect 26 0 81 0;
#X connect 26 1 82 0;
#X connect 26 2 83 0;
#X connect 26 3 84 0;
#X connect 26 4 17 0;
#X connect 27 0 34 0;
#X connect 28 0 35 0;
#X connect 30 0 32 0;
#X connect 31 0 32 0;
#X connect 32 0 18 0;
#X connect 33 0 30 0;
#X connect 33 1 31 0;
#X connect 33 2 38 0;
#X connect 33 3 39 0;
#X connect 34 0 36 0;
#X connect 34 1 29 0;
#X connect 35 0 37 0;
#X connect 35 1 29 0;
#X connect 36 0 29 0;
#X connect 37 0 29 0;
#X connect 38 0 32 0;
#X connect 39 0 32 0;
#X connect 40 0 42 0;
#X connect 41 0 47 0;
#X connect 52 0 44 0;
#X connect 53 0 49 0;
#X connect 57 0 60 0;
#X connect 58 0 59 0;
#X connect 61 0 63 0;
#X connect 62 0 64 0;
#X connect 65 0 67 0;
#X connect 66 0 68 0;
#X connect 69 0 72 0;
#X connect 70 0 71 0;
#X connect 73 0 75 0;
#X connect 74 0 76 0;
#X connect 80 0 79 0;
#X connect 81 0 46 0;
#X connect 82 0 51 0;
#X connect 83 0 77 0;
#X connect 84 0 78 0;
#X connect 85 0 87 0;
#X connect 86 0 85 0;
#X connect 88 0 90 0;
#X connect 89 0 88 0;
#X connect 91 0 93 0;
#X connect 92 0 91 0;
#X connect 94 0 96 0;
#X connect 95 0 94 0;
#X connect 97 0 99 0;
#X connect 98 0 97 0;
#X connect 100 0 86 0;
#X connect 100 1 89 0;
#X connect 100 2 92 0;
#X connect 100 3 95 0;
#X connect 100 4 98 0;
#X connect 100 5 101 0;
#X connect 100 6 106 0;
#X connect 100 7 108 0;
#X connect 100 8 110 0;
#X connect 100 9 105 0;
#X connect 101 0 102 0;
#X connect 105 0 104 0;
#X connect 106 0 103 0;
#X connect 108 0 109 0;
#X connect 110 0 107 0;
#X restore 719 521 pd midi;
#X obj 821 82 sampler-absPres 3 34 2 26;
#N canvas 0 22 450 300 sendOSC 0;
#X obj 208 295 hsl 128 32 0 4096 0 0 empty empty empty -2 -8 0 10 #e3dfd9 #5a5a5a #5a5a5a 0 1;
#X obj 187 344 i;
#X obj 445 872 tgl 19 0 empty empty empty 0 -8 0 10 #dfdfdf #000000 #000000 0 1;
#X text 471 868 <-- connection status;
#X msg 566 839 connect 192.168.1.29 8000;
#X obj 185 152 inlet~;
#X obj 291 152 inlet~;
#X obj 397 152 inlet~;
#X obj 503 152 inlet~;
#X obj 354 295 hsl 128 32 0 4096 0 0 empty empty empty -2 -8 0 10 #e3dfd9 #5a5a5a #5a5a5a 0 1;
#X obj 333 344 i;
#X obj 500 295 hsl 128 32 0 4096 0 0 empty empty empty -2 -8 0 10 #e3dfd9 #5a5a5a #5a5a5a 0 1;
#X obj 479 344 i;
#X obj 646 295 hsl 128 32 0 4096 0 0 empty empty empty -2 -8 0 10 #e3dfd9 #5a5a5a #5a5a5a 0 1;
#X obj 625 344 i;
#X obj 894 229 loadbang;
#X obj 419 749 tgl 25 0 empty empty empty 17 7 0 10 #e3dfd9 #5a5a5a #5a5a5a 0 1;
#X obj 419 790 gate 1 1;
#X msg 424 45 50;
#X msg 566 806 disconnect;
#X obj 897 510 tgl 19 0 empty empty empty 0 -8 0 10 #dfdfdf #000000 #000000 0 1;
#X obj 894 475 osc.send 8000;
#X obj 920 408 loadbang;
#X msg 920 437 connect 192.168.1.255 8000;
#X obj 1134 246 print OSC_IN;
#X obj 1110 209 osc.receive 8001;
#X obj 1110 282 osc.route /ip;
#X obj 1110 308 route Klax_1 Klax_2 Klax_3 Klax_4;
#X obj 1113 487 print;
#X msg 1113 437 connect \$1 8000, f 31;
#X obj 1110 336 tosymbol;
#X msg 894 319 /getIP;
#X obj 445 902 print Klax_1_connected;
#X obj 894 273 del 2000;
#X obj 210 408 pack 0 0 0 0;
#X obj 293 527 list;
#X obj 445 623 prepend set;
#X msg 445 669 /motorAll 0 0 0 0;
#X obj 133 487 metro 20;
#X obj 133 454 loadmess 1;
#X msg 305 45 1;
#X obj 185 191 s2f~ 10;
#X obj 291 191 s2f~ 10;
#X obj 397 191 s2f~ 10;
#X obj 503 191 s2f~ 10;
#X obj 293 568 prepend /motorAll;
#X obj 437 830 osc.send 8000;
#X obj 185 223 * 255;
#X obj 291 223 * 255;
#X obj 397 223 * 255;
#X obj 503 223 * 255;
#X connect 0 0 1 0;
#X connect 1 0 34 0;
#X connect 2 0 32 0;
#X connect 4 0 46 0;
#X connect 5 0 41 0;
#X connect 6 0 42 0;
#X connect 7 0 43 0;
#X connect 8 0 44 0;
#X connect 9 0 10 0;
#X connect 10 0 34 1;
#X connect 11 0 12 0;
#X connect 12 0 34 2;
#X connect 13 0 14 0;
#X connect 14 0 34 3;
#X connect 15 0 33 0;
#X connect 16 0 17 0;
#X connect 17 0 46 0;
#X connect 18 0 41 1;
#X connect 18 0 42 1;
#X connect 18 0 43 1;
#X connect 18 0 44 1;
#X connect 19 0 46 0;
#X connect 21 0 20 0;
#X connect 22 0 23 0;
#X connect 23 0 21 0;
#X connect 25 0 24 0;
#X connect 25 0 26 0;
#X connect 26 0 27 0;
#X connect 27 0 30 0;
#X connect 29 0 28 0;
#X connect 29 0 46 0;
#X connect 30 0 29 0;
#X connect 31 0 21 0;
#X connect 33 0 31 0;
#X connect 34 0 35 1;
#X connect 35 0 45 0;
#X connect 36 0 37 0;
#X connect 38 0 35 0;
#X connect 39 0 38 0;
#X connect 40 0 41 1;
#X connect 40 0 42 1;
#X connect 40 0 43 1;
#X connect 40 0 44 1;
#X connect 41 0 47 0;
#X connect 42 0 48 0;
#X connect 43 0 49 0;
#X connect 44 0 50 0;
#X connect 45 0 17 1;
#X connect 45 0 36 0;
#X connect 46 0 2 0;
#X connect 47 0 0 0;
#X connect 48 0 9 0;
#X connect 49 0 11 0;
#X connect 50 0 13 0;
#X restore 450 521 pd sendOSC;
#X connect 0 0 17 0;
#X connect 1 0 0 0;
#X connect 4 0 2 0;
#X connect 6 0 9 0;
#X connect 6 0 30 0;
#X connect 7 0 25 0;
#X connect 7 0 33 0;
#X connect 8 0 53 0;
#X connect 9 0 8 0;
#X connect 11 0 6 0;
#X connect 12 0 36 0;
#X connect 13 0 41 0;
#X connect 14 0 13 0;
#X connect 15 0 12 0;
#X connect 16 0 1 0;
#X connect 17 0 18 0;
#X connect 18 0 32 0;
#X connect 22 0 75 5;
#X connect 23 0 75 6;
#X connect 25 0 54 0;
#X connect 26 0 75 4;
#X connect 27 0 75 3;
#X connect 28 0 54 0;
#X connect 28 1 54 1;
#X connect 29 0 28 0;
#X connect 31 0 75 2;
#X connect 34 0 40 0;
#X connect 35 0 34 0;
#X connect 36 0 38 0;
#X connect 36 1 39 0;
#X connect 37 0 36 1;
#X connect 38 0 75 0;
#X connect 39 0 75 1;
#X connect 40 0 38 0;
#X connect 40 1 39 0;
#X connect 41 0 38 0;
#X connect 41 1 39 0;
#X connect 45 0 71 0;
#X connect 48 0 72 0;
#X connect 51 0 49 0;
#X connect 53 0 7 0;
#X connect 54 0 24 0;
#X connect 54 0 22 0;
#X connect 55 0 50 0;
#X connect 56 0 50 0;
#X connect 57 0 50 0;
#X connect 58 0 50 0;
#X connect 59 0 50 0;
#X connect 60 0 50 0;
#X connect 61 0 62 0;
#X connect 62 0 65 0;
#X connect 65 0 63 0;
#X connect 70 0 59 0;
#X connect 73 0 15 0;
#X connect 73 0 94 0;
#X connect 74 0 35 0;
#X connect 74 0 94 1;
#X connect 75 0 5 0;
#X connect 75 1 5 1;
#X connect 76 0 6 0;
#X connect 77 0 81 0;
#X connect 77 0 94 3;
#X connect 78 0 82 0;
#X connect 79 0 78 0;
#X connect 80 0 83 0;
#X connect 81 0 80 0;
#X connect 82 0 38 0;
#X connect 82 1 39 0;
#X connect 83 0 38 0;
#X connect 83 1 39 0;
#X connect 84 0 4 0;
#X connect 85 0 37 0;
#X connect 86 0 40 1;
#X connect 87 0 86 0;
#X connect 88 0 82 1;
#X connect 89 0 88 0;
#X connect 90 0 83 1;
#X connect 91 0 90 0;
#X connect 92 0 12 0;
#X connect 92 1 34 0;
#X connect 92 2 78 0;
#X connect 92 3 80 0;
#X connect 92 4 13 0;
#X connect 92 5 31 0;
#X connect 92 6 27 0;
#X connect 92 7 26 0;
#X connect 92 8 22 0;
#X connect 92 9 23 0;
#X connect 93 0 79 0;
#X connect 93 0 94 2;
