#N canvas 827 239 1065 981 12;
#X declare -path cyclone -path else;
#X floatatom 876 631 12 0 0 0 - - - 16;
#X obj 876 568 * 4;
#X text 923 556 4 beats;
#X obj 876 673 s all-len;
#X obj 702 203 bng 54 250 50 0 empty empty clear 15 6 0 10 #e4e4e4 #4d4d4d #373737;
#X obj 702 296 bng 54 250 50 0 empty empty sync 15 6 0 10 #e4e4e4 #4d4d4d #373737;
#X text 923 584 4 bar;
#X obj 876 596 * 4;
#X obj 796 214 r mode;
#X msg 796 249 set \$1;
#X obj 796 391 s mode;
#X obj 797 280 vradio 23 1 0 4 empty empty empty 0 -8 0 10 #e3dfd9 #5a5a5a #5a5a5a 0;
#X text 833 276 play;
#X text 833 302 rec;
#X text 833 329 clear;
#X text 833 350 sync;
#X obj 702 267 s all-clear;
#X obj 702 360 s all-sync;
#X obj 7 5 sampler-absPres 1 32 0 24;
#X obj 7 121 sampler-absPres 2 33 1 25;
#X obj 7 353 sampler-absPres 4 35 3 27;
#X obj 912 733 loadbang;
#N canvas 705 263 947 652 midi 0;
#X obj 154 183 prepend set;
#X msg 154 215 7 45 0;
#X obj 25 225 route 7;
#X obj 291 417 > 64;
#X obj 269 477 > 64;
#X obj 523 477 > 64;
#X obj 547 417 > 64;
#X obj 1817 262 route 57 58 59 60;
#X obj 1740 658 s midiout;
#X obj 1740 475 r mode;
#X obj 1955 300 > 64;
#X obj 2003 300 > 64;
#X obj 1955 360 sel 1;
#X obj 2003 360 sel 1;
#X msg 1957 397 0;
#X msg 1998 397 1;
#X obj 1739 300 > 64;
#X obj 1848 300 > 64;
#X obj 1848 444 s mode;
#X msg 1740 539 127 0 0 0;
#X msg 1821 539 0 127 0 0;
#X obj 1740 504 sel 0 1 2 3, f 50;
#N canvas 733 172 450 300 tmpMode 0;
#X obj 134 108 r mode;
#X obj 127 161 i;
#X obj 99 53 sel 1 0;
#X obj 102 202 i;
#X obj 69 91 t b b;
#X obj 99 18 inlet;
#X obj 52 179 outlet;
#X obj 61 246 outlet;
#X connect 0 0 1 1;
#X connect 1 0 3 1;
#X connect 2 0 4 0;
#X connect 2 1 3 0;
#X connect 3 0 7 0;
#X connect 4 0 6 0;
#X connect 4 1 1 0;
#X connect 5 0 2 0;
#X restore 1739 360 pd tmpMode;
#N canvas 733 172 450 300 tmpMode 0;
#X obj 211 117 r mode;
#X obj 204 170 i;
#X obj 176 62 sel 1 0;
#X obj 179 211 i;
#X obj 146 100 t b b;
#X obj 176 27 inlet;
#X obj 129 188 outlet;
#X obj 138 255 outlet;
#X connect 0 0 1 1;
#X connect 1 0 3 1;
#X connect 2 0 4 0;
#X connect 2 1 3 0;
#X connect 3 0 7 0;
#X connect 4 0 6 0;
#X connect 4 1 1 0;
#X connect 5 0 2 0;
#X restore 1848 360 pd tmpMode;
#X obj 25 477 / 127;
#X obj 47 417 / 127;
#X obj 25 510 s 1-in+;
#X obj 269 510 s 1-punch+;
#X obj 809 507 s 1-speed+;
#X obj 1071 510 s 1-reverse+;
#X obj 1373 510 s 1-intens+;
#X obj 47 447 s 2-in+;
#X obj 291 447 s 2-punch+;
#X obj 833 481 s 2-speed+;
#X obj 1093 446 s 2-reverse+;
#X obj 1395 446 s 2-intens+;
#X obj 547 446 s 2-recplay+;
#X obj 523 510 s 1-recplay+;
#X text 1817 223 mode;
#X obj 70 355 / 127;
#X obj 93 295 / 127;
#X obj 93 325 s 4-in+;
#X obj 71 388 s 3-in+;
#X obj 333 295 > 64;
#X obj 311 355 > 64;
#X obj 333 325 s 4-punch+;
#X obj 311 388 s 3-punch+;
#X obj 572 356 > 64;
#X obj 596 296 > 64;
#X obj 572 389 s 3-recplay+;
#X obj 596 325 s 4-recplay+;
#X obj 882 433 s 4-speed+;
#X obj 858 458 s 3-speed+;
#X obj 1115 389 s 3-reverse+;
#X obj 1137 325 s 4-reverse+;
#X obj 1417 389 s 3-intens+;
#X obj 1439 325 s 4-intens+;
#X obj 270 92 r midiout;
#X obj 1373 477 / 64;
#X obj 1395 417 / 64;
#X obj 1417 356 / 64;
#X obj 1439 296 / 64;
#X obj 25 32 else/osc.receive 9000;
#X obj 41 125 print MIDI_IN;
#X obj 25 152 else/osc.route /midi;
#X obj 443 170 else/osc.send 9001;
#X msg 469 123 connect 127.0.0.1 9001;
#X obj 470 96 loadbang;
#X obj 443 205 tgl 19 0 empty empty empty 0 -10 0 12 #fcfcfc #000000 #000000 0 1;
#X obj 268 127 cyclone/prepend /midi_raw;
#X obj 25 260 route 41 42 43 44 45 46 47 48;
#X obj 130 477 / 127;
#X obj 152 417 / 127;
#X obj 175 355 / 127;
#X obj 198 295 / 127;
#X obj 130 510 s 5-in+;
#X obj 152 447 s 6-in+;
#X obj 176 388 s 7-in+;
#X obj 198 325 s 8-in+;
#X obj 267 259 route 89 90 91 92 93 94 95 96;
#X obj 393 417 > 64;
#X obj 371 477 > 64;
#X obj 435 295 > 64;
#X obj 413 355 > 64;
#X obj 371 510 s 5-punch+;
#X obj 393 447 s 6-punch+;
#X obj 413 388 s 7-punch+;
#X obj 435 325 s 8-punch+;
#X obj 523 260 route 97 98 99 100 101 102 103 104;
#X obj 635 477 > 64;
#X obj 659 417 > 64;
#X obj 684 356 > 64;
#X obj 708 296 > 64;
#X obj 708 325 s 8-recplay+;
#X obj 684 389 s 7-recplay+;
#X obj 659 446 s 6-recplay+;
#X obj 635 510 s 5-recplay+;
#X obj 809 260 route 13 14 15 16 17 18 19 20, f 31;
#X obj 981 329 s 8-speed+;
#X obj 956 353 s 7-speed+;
#X obj 932 379 s 6-speed+;
#X obj 908 406 s 5-speed+;
#X obj 1071 260 route 29 30 31 32 33 34 35 36;
#X obj 1251 332 s 8-reverse+;
#X obj 1229 396 s 7-reverse+;
#X obj 1207 453 s 6-reverse+;
#X obj 1185 517 s 5-reverse+;
#X obj 1488 477 / 64;
#X obj 1510 417 / 64;
#X obj 1532 356 / 64;
#X obj 1554 296 / 64;
#X obj 1554 325 s 8-intens+;
#X obj 1532 389 s 7-intens+;
#X obj 1510 446 s 6-intens+;
#X obj 1488 510 s 5-intens+;
#X obj 1373 260 route 21 22 23 24 25 26 27 28;
#X obj 1071 477 < 64;
#X obj 1093 417 < 64;
#X obj 1115 356 < 64;
#X obj 1137 296 < 64;
#X obj 1185 484 < 64;
#X obj 1207 424 < 64;
#X obj 1229 363 < 64;
#X obj 1251 303 < 64;
#X obj 47 92 gate;
#X obj 47 54 tgl 25 0 empty empty empty 17 7 0 10 #e3dfd9 #5a5a5a #5a5a5a 0 1;
#X text 80 60 debug midi in;
#X obj 2273 375 s tap;
#X obj 2273 337 sel 127;
#X obj 2177 486 r clic;
#X msg 2179 591 0;
#X msg 2177 634 240 0 32 41 2 17 120 6 45 \$1 247;
#X obj 2177 521 t b b, f 11;
#X obj 2177 554 del 100;
#X msg 1740 607 240 0 32 41 2 17 120 6 42 \$1 43 \$2 40 \$3 41 \$4 247;
#X msg 2232 591 127;
#X obj 2210 285 route 114 115;
#X obj 2210 338 > 63;
#X obj 2177 665 s midiout;
#X obj 2210 375 s shift;
#N canvas 733 172 450 300 shift_syncall 0;
#X obj 24 76 cyclone/gate 2 1;
#X obj 24 46 + 1;
#X obj 24 13 r shift;
#X obj 106 38 inlet;
#X obj 24 111 outlet;
#X obj 106 133 s all-sync;
#X obj 106 104 bang;
#X connect 0 0 4 0;
#X connect 0 1 6 0;
#X connect 1 0 0 0;
#X connect 2 0 1 0;
#X connect 3 0 0 1;
#X connect 6 0 5 0;
#X restore 1957 332 pd shift_syncall;
#N canvas 733 172 450 300 shift_clearall 0;
#X obj 257 69 inlet;
#X obj 175 157 outlet;
#X obj 175 109 cyclone/gate 2 1;
#X obj 175 79 + 1;
#X obj 175 46 r shift;
#X obj 258 168 s all-clear;
#X obj 258 140 bang;
#X connect 0 0 2 1;
#X connect 2 0 1 0;
#X connect 2 1 6 0;
#X connect 3 0 2 0;
#X connect 4 0 3 0;
#X connect 6 0 5 0;
#X restore 1739 332 pd shift_clearall;
#N canvas 733 172 450 300 stopall 0;
#X obj 35 88 cyclone/gate 2 1;
#X obj 35 58 + 1;
#X obj 35 25 r shift;
#X obj 117 58 inlet;
#X obj 35 119 outlet;
#X obj 117 158 s all-stop;
#X obj 124 124 bang;
#X connect 0 0 4 0;
#X connect 0 1 6 0;
#X connect 1 0 0 0;
#X connect 2 0 1 0;
#X connect 3 0 0 1;
#X connect 6 0 5 0;
#X restore 1848 332 pd stopall;
#X msg 1739 399 2;
#X msg 1850 397 3;
#X msg 1902 539 0 0 127 0;
#X msg 1983 539 0 0 0 127;
#X msg 2399 591 0;
#X obj 2397 665 s midiout;
#X obj 2397 486 r shift;
#X obj 2397 554 sel 0 1;
#X obj 2397 521 > 0, f 11;
#X msg 2397 634 240 0 32 41 2 17 120 6 44 \$1 247;
#X msg 2452 591 61;
#X connect 0 0 1 0;
#X connect 2 0 70 0;
#X connect 3 0 32 0;
#X connect 4 0 27 0;
#X connect 5 0 37 0;
#X connect 6 0 36 0;
#X connect 7 0 16 0;
#X connect 7 1 17 0;
#X connect 7 2 10 0;
#X connect 7 3 11 0;
#X connect 7 4 136 0;
#X connect 9 0 21 0;
#X connect 10 0 140 0;
#X connect 11 0 13 0;
#X connect 12 0 14 0;
#X connect 13 0 15 0;
#X connect 14 0 18 0;
#X connect 15 0 18 0;
#X connect 16 0 141 0;
#X connect 17 0 142 0;
#X connect 19 0 134 0;
#X connect 20 0 134 0;
#X connect 21 0 19 0;
#X connect 21 1 20 0;
#X connect 21 2 145 0;
#X connect 21 3 146 0;
#X connect 22 0 143 0;
#X connect 22 1 18 0;
#X connect 23 0 144 0;
#X connect 23 1 18 0;
#X connect 24 0 26 0;
#X connect 25 0 31 0;
#X connect 39 0 42 0;
#X connect 40 0 41 0;
#X connect 43 0 45 0;
#X connect 44 0 46 0;
#X connect 47 0 49 0;
#X connect 48 0 50 0;
#X connect 57 0 69 0;
#X connect 58 0 30 0;
#X connect 59 0 35 0;
#X connect 60 0 55 0;
#X connect 61 0 56 0;
#X connect 62 0 64 0;
#X connect 62 0 124 1;
#X connect 64 0 0 0;
#X connect 64 0 2 0;
#X connect 65 0 68 0;
#X connect 66 0 65 0;
#X connect 67 0 66 0;
#X connect 69 0 65 0;
#X connect 70 0 24 0;
#X connect 70 1 25 0;
#X connect 70 2 39 0;
#X connect 70 3 40 0;
#X connect 70 4 71 0;
#X connect 70 5 72 0;
#X connect 70 6 73 0;
#X connect 70 7 74 0;
#X connect 70 8 79 0;
#X connect 71 0 75 0;
#X connect 72 0 76 0;
#X connect 73 0 77 0;
#X connect 74 0 78 0;
#X connect 79 0 4 0;
#X connect 79 1 3 0;
#X connect 79 2 44 0;
#X connect 79 3 43 0;
#X connect 79 4 81 0;
#X connect 79 5 80 0;
#X connect 79 6 83 0;
#X connect 79 7 82 0;
#X connect 79 8 88 0;
#X connect 80 0 85 0;
#X connect 81 0 84 0;
#X connect 82 0 87 0;
#X connect 83 0 86 0;
#X connect 88 0 5 0;
#X connect 88 1 6 0;
#X connect 88 2 47 0;
#X connect 88 3 48 0;
#X connect 88 4 89 0;
#X connect 88 5 90 0;
#X connect 88 6 91 0;
#X connect 88 7 92 0;
#X connect 88 8 97 0;
#X connect 89 0 96 0;
#X connect 90 0 95 0;
#X connect 91 0 94 0;
#X connect 92 0 93 0;
#X connect 97 0 28 0;
#X connect 97 1 33 0;
#X connect 97 2 52 0;
#X connect 97 3 51 0;
#X connect 97 4 101 0;
#X connect 97 5 100 0;
#X connect 97 6 99 0;
#X connect 97 7 98 0;
#X connect 97 8 102 0;
#X connect 102 0 116 0;
#X connect 102 1 117 0;
#X connect 102 2 118 0;
#X connect 102 3 119 0;
#X connect 102 4 120 0;
#X connect 102 5 121 0;
#X connect 102 6 122 0;
#X connect 102 7 123 0;
#X connect 102 8 115 0;
#X connect 107 0 114 0;
#X connect 108 0 113 0;
#X connect 109 0 112 0;
#X connect 110 0 111 0;
#X connect 115 0 58 0;
#X connect 115 1 59 0;
#X connect 115 2 60 0;
#X connect 115 3 61 0;
#X connect 115 4 107 0;
#X connect 115 5 108 0;
#X connect 115 6 109 0;
#X connect 115 7 110 0;
#X connect 115 8 7 0;
#X connect 116 0 29 0;
#X connect 117 0 34 0;
#X connect 118 0 53 0;
#X connect 119 0 54 0;
#X connect 120 0 106 0;
#X connect 121 0 105 0;
#X connect 122 0 104 0;
#X connect 123 0 103 0;
#X connect 124 0 63 0;
#X connect 125 0 124 0;
#X connect 128 0 127 0;
#X connect 129 0 132 0;
#X connect 130 0 131 0;
#X connect 131 0 138 0;
#X connect 132 0 133 0;
#X connect 132 1 135 0;
#X connect 133 0 130 0;
#X connect 134 0 8 0;
#X connect 135 0 131 0;
#X connect 136 0 137 0;
#X connect 136 1 128 0;
#X connect 137 0 139 0;
#X connect 140 0 12 0;
#X connect 141 0 22 0;
#X connect 142 0 23 0;
#X connect 143 0 18 0;
#X connect 144 0 18 0;
#X connect 145 0 134 0;
#X connect 146 0 134 0;
#X connect 147 0 152 0;
#X connect 149 0 151 0;
#X connect 150 0 147 0;
#X connect 150 1 153 0;
#X connect 151 0 150 0;
#X connect 152 0 148 0;
#X connect 153 0 152 0;
#X restore 788 821 pd midi;
#X obj 7 237 sampler-absPres 3 34 2 26;
#N canvas 607 381 1029 618 sendOSC 0;
#X obj 369 135 i;
#X obj 329 574 tgl 19 0 empty empty empty 0 -8 0 10 #dfdfdf #000000 #000000 0 1;
#X text 355 572 <-- connection status;
#X obj 369 18 inlet~;
#X obj 475 18 inlet~;
#X obj 581 18 inlet~;
#X obj 687 18 inlet~;
#X obj 475 134 i;
#X obj 581 134 i;
#X obj 687 134 i;
#X obj 329 366 gate 1 1;
#X msg 30 507 disconnect;
#X obj 2099 589 tgl 19 0 empty empty empty 0 -8 0 10 #dfdfdf #000000 #000000 0 1;
#X obj 2125 492 loadbang;
#X obj 2190 57 print OSC_IN;
#X msg 2095 216 connect \$1 8000, f 16;
#X msg 2099 465 /getIP;
#X obj 329 604 print Klax_1_connected;
#X obj 358 217 list;
#X obj 30 170 metro 20;
#X obj 369 80 * 255;
#X obj 475 80 * 255;
#X obj 581 80 * 255;
#X obj 687 80 * 255;
#X obj 369 108 clip 0 255;
#X obj 475 108 clip 0 255;
#X obj 581 108 clip 0 255;
#X obj 687 108 clip 0 255;
#X obj 2095 185 cyclone/tosymbol;
#X obj 2094 21 else/osc.receive 8001;
#X obj 2095 93 else/osc.route /ip;
#X obj 2099 553 else/osc.send 8000;
#X obj 329 545 else/osc.send 8000;
#X obj 358 249 cyclone/prepend /motorAll;
#X obj 30 134 cyclone/loadmess 1;
#X obj 369 48 else/s2f~ 10;
#X obj 475 48 else/s2f~ 10;
#X obj 581 48 else/s2f~ 10;
#X obj 687 48 else/s2f~ 10;
#X obj 369 170 cyclone/pak 0 0 0 0;
#X obj 2095 129 route Klax_1 Klax_2 Klax_3 Klax_4 Klax_5;
#X msg 2125 528 connect 10.0.0.255 8000;
#X text 2377 527 KLAX5 10.0.0.15;
#X text 2377 433 KLAX1 10.0.0.11;
#X text 2377 456 KLAX2 10.0.0.12;
#X text 2377 503 KLAX3 10.0.0.13;
#X text 2376 481 KLAX4 10.0.0.14;
#X obj 2099 406 cyclone/loadmess 1;
#X obj 2099 437 metro 5000;
#X msg 2213 492 disconnect;
#X msg 2220 216 connect \$1 8000, f 16;
#X obj 2220 185 cyclone/tosymbol;
#X obj 2095 249 print KLAX1;
#X obj 2220 249 print KLAX2;
#X obj 800 135 i;
#X obj 800 18 inlet~;
#X obj 906 18 inlet~;
#X obj 1012 18 inlet~;
#X obj 1118 18 inlet~;
#X obj 906 134 i;
#X obj 1012 134 i;
#X obj 1118 134 i;
#X obj 800 80 * 255;
#X obj 906 80 * 255;
#X obj 1012 80 * 255;
#X obj 1118 80 * 255;
#X obj 800 108 clip 0 255;
#X obj 906 108 clip 0 255;
#X obj 1012 108 clip 0 255;
#X obj 1118 108 clip 0 255;
#X obj 800 48 else/s2f~ 10;
#X obj 906 48 else/s2f~ 10;
#X obj 1012 48 else/s2f~ 10;
#X obj 1118 48 else/s2f~ 10;
#X obj 800 170 cyclone/pak 0 0 0 0;
#X obj 760 583 tgl 19 0 empty empty empty 0 -8 0 10 #dfdfdf #000000 #000000 0 1;
#X text 786 581 <-- connection status;
#X obj 760 366 gate 1 1;
#X obj 789 217 list;
#X obj 760 545 else/osc.send 8000;
#X obj 789 249 cyclone/prepend /motorAll;
#X msg 358 507 connect 10.0.0.11 8000;
#X msg 786 507 connect 10.0.0.12 8000;
#X msg 2145 589 connect 192.168.1.255 8000;
#X msg 2349 216 connect \$1 8000, f 16;
#X obj 2349 185 cyclone/tosymbol;
#X msg 2474 216 connect \$1 8000, f 16;
#X obj 2474 185 cyclone/tosymbol;
#X obj 2349 249 print KLAX3;
#X obj 2474 249 print KLAX4;
#X msg 786 453 connect 192.168.1.15 8000;
#X msg 358 453 connect 192.168.1.72 8000;
#X obj 152 574 tgl 19 0 empty empty empty 0 -8 0 10 #dfdfdf #000000 #000000 0 1;
#X text 178 572 <-- connection status;
#X obj 30 285 tgl 25 0 empty empty empty 17 7 0 10 #e3dfd9 #5a5a5a #5a5a5a 0 1;
#X obj 152 366 gate 1 1;
#X obj 152 545 else/osc.send 8000;
#X msg 185 507 connect 10.0.0.15 8000;
#X obj 1239 135 i;
#X obj 1239 18 inlet~;
#X obj 1345 18 inlet~;
#X obj 1451 18 inlet~;
#X obj 1557 18 inlet~;
#X obj 1345 134 i;
#X obj 1451 134 i;
#X obj 1557 134 i;
#X obj 1239 80 * 255;
#X obj 1345 80 * 255;
#X obj 1451 80 * 255;
#X obj 1557 80 * 255;
#X obj 1239 108 clip 0 255;
#X obj 1345 108 clip 0 255;
#X obj 1451 108 clip 0 255;
#X obj 1557 108 clip 0 255;
#X obj 1239 48 else/s2f~ 10;
#X obj 1345 48 else/s2f~ 10;
#X obj 1451 48 else/s2f~ 10;
#X obj 1557 48 else/s2f~ 10;
#X obj 1239 170 cyclone/pak 0 0 0 0;
#X obj 1228 217 list;
#X obj 1228 249 cyclone/prepend /motorAll;
#X obj 1648 135 i;
#X obj 1648 18 inlet~;
#X obj 1754 18 inlet~;
#X obj 1860 18 inlet~;
#X obj 1966 18 inlet~;
#X obj 1754 134 i;
#X obj 1860 134 i;
#X obj 1966 134 i;
#X obj 1648 80 * 255;
#X obj 1754 80 * 255;
#X obj 1860 80 * 255;
#X obj 1966 80 * 255;
#X obj 1648 108 clip 0 255;
#X obj 1754 108 clip 0 255;
#X obj 1860 108 clip 0 255;
#X obj 1966 108 clip 0 255;
#X obj 1648 48 else/s2f~ 10;
#X obj 1754 48 else/s2f~ 10;
#X obj 1860 48 else/s2f~ 10;
#X obj 1966 48 else/s2f~ 10;
#X obj 1648 170 cyclone/pak 0 0 0 0;
#X obj 1637 217 list;
#X obj 1637 249 cyclone/prepend /motorAll;
#X obj 1199 574 tgl 19 0 empty empty empty 0 -8 0 10 #dfdfdf #000000 #000000 0 1;
#X text 1225 572 <-- connection status;
#X obj 1199 366 gate 1 1;
#X obj 1199 545 else/osc.send 8000;
#X obj 760 613 print Klax_2_connected;
#X obj 1199 604 print Klax_3_connected;
#X msg 1225 507 connect 10.0.0.13 8000;
#X obj 1591 574 tgl 19 0 empty empty empty 0 -8 0 10 #dfdfdf #000000 #000000 0 1;
#X text 1634 572 <-- connection status;
#X obj 1608 366 gate 1 1;
#X obj 1608 545 else/osc.send 8000;
#X obj 1608 604 print Klax_4_connected;
#X msg 1634 507 connect 10.0.0.14 8000;
#X obj 30 377 loadbang;
#X obj 30 410 del 5000;
#X obj 30 447 button 25 25 228 228 228 77 77 77 0;
#X obj 152 604 print Klax_5_connected;
#X text 64 449 connect;
#X text 64 284 connect;
#X connect 0 0 39 0;
#X connect 1 0 17 0;
#X connect 3 0 35 0;
#X connect 4 0 36 0;
#X connect 5 0 37 0;
#X connect 6 0 38 0;
#X connect 7 0 39 1;
#X connect 8 0 39 2;
#X connect 9 0 39 3;
#X connect 10 0 32 0;
#X connect 11 0 79 0 32.................J....Xr...fB....FK...LA....;
#X connect 11 0 96 0 32.................J....nG...fB....5A...LA....;
#X connect 11 0 32 0 32.................J....rR...fB....qD...LA....;
#X connect 11 0 147 0 32.................J....zGA..fB....8Q...LA....;
#X connect 11 0 154 0 32.................J....TfA..fB....EX...LA....;
#X connect 13 0 41 0;
#X connect 15 0 52 0;
#X connect 15 0 32 0;
#X connect 16 0 31 0;
#X connect 18 0 33 0;
#X connect 19 0 18 0 32.................N....fT...fC....HE...vA....;
#X connect 19 0 78 0 32.................N....Lt...fC....iK...vA....;
#X connect 19 0 119 0 32.................N....nIA..fC....ZR...vA....;
#X connect 19 0 142 0 32.................N....HhA..fC....hX...vA....;
#X connect 20 0 24 0;
#X connect 21 0 25 0;
#X connect 22 0 26 0;
#X connect 23 0 27 0;
#X connect 24 0 0 0;
#X connect 25 0 7 0;
#X connect 26 0 8 0;
#X connect 27 0 9 0;
#X connect 28 0 15 0;
#X connect 29 0 14 0;
#X connect 29 0 30 0;
#X connect 30 0 40 0;
#X connect 31 0 12 0;
#X connect 32 0 1 0;
#X connect 33 0 10 1;
#X connect 33 0 95 1;
#X connect 34 0 19 0;
#X connect 35 0 20 0;
#X connect 36 0 21 0;
#X connect 37 0 22 0;
#X connect 38 0 23 0;
#X connect 39 0 18 1;
#X connect 40 0 28 0;
#X connect 40 1 51 0;
#X connect 40 2 85 0;
#X connect 40 3 87 0;
#X connect 41 0 31 0;
#X connect 47 0 48 0;
#X connect 48 0 16 0;
#X connect 49 0 31 0;
#X connect 50 0 53 0;
#X connect 50 0 79 0;
#X connect 51 0 50 0;
#X connect 54 0 74 0;
#X connect 55 0 70 0;
#X connect 56 0 71 0;
#X connect 57 0 72 0;
#X connect 58 0 73 0;
#X connect 59 0 74 1;
#X connect 60 0 74 2;
#X connect 61 0 74 3;
#X connect 62 0 66 0;
#X connect 63 0 67 0;
#X connect 64 0 68 0;
#X connect 65 0 69 0;
#X connect 66 0 54 0;
#X connect 67 0 59 0;
#X connect 68 0 60 0;
#X connect 69 0 61 0;
#X connect 70 0 62 0;
#X connect 71 0 63 0;
#X connect 72 0 64 0;
#X connect 73 0 65 0;
#X connect 74 0 78 1;
#X connect 75 0 148 0;
#X connect 77 0 79 0;
#X connect 78 0 80 0;
#X connect 79 0 75 0;
#X connect 80 0 77 1;
#X connect 81 0 32 0;
#X connect 82 0 79 0;
#X connect 83 0 31 0;
#X connect 84 0 88 0;
#X connect 84 0 147 0;
#X connect 85 0 84 0;
#X connect 86 0 89 0;
#X connect 86 0 154 0;
#X connect 87 0 86 0;
#X connect 90 0 79 0;
#X connect 91 0 32 0;
#X connect 92 0 160 0;
#X connect 94 0 95 0 32.................S....nG...vD....5A...fC....;
#X connect 94 0 10 0 32.................S....rR...vD....qD...fC....;
#X connect 94 0 146 0 32.................S....zGA..vD....8Q...fC....;
#X connect 94 0 77 0 32.................S....Xr...vD....FK...fC....;
#X connect 94 0 153 0 32.................S....TfA..vD....EX...fC....;
#X connect 95 0 96 0;
#X connect 96 0 92 0;
#X connect 97 0 96 0;
#X connect 98 0 118 0;
#X connect 99 0 114 0;
#X connect 100 0 115 0;
#X connect 101 0 116 0;
#X connect 102 0 117 0;
#X connect 103 0 118 1;
#X connect 104 0 118 2;
#X connect 105 0 118 3;
#X connect 106 0 110 0;
#X connect 107 0 111 0;
#X connect 108 0 112 0;
#X connect 109 0 113 0;
#X connect 110 0 98 0;
#X connect 111 0 103 0;
#X connect 112 0 104 0;
#X connect 113 0 105 0;
#X connect 114 0 106 0;
#X connect 115 0 107 0;
#X connect 116 0 108 0;
#X connect 117 0 109 0;
#X connect 118 0 119 1;
#X connect 119 0 120 0;
#X connect 120 0 146 1;
#X connect 121 0 141 0;
#X connect 122 0 137 0;
#X connect 123 0 138 0;
#X connect 124 0 139 0;
#X connect 125 0 140 0;
#X connect 126 0 141 1;
#X connect 127 0 141 2;
#X connect 128 0 141 3;
#X connect 129 0 133 0;
#X connect 130 0 134 0;
#X connect 131 0 135 0;
#X connect 132 0 136 0;
#X connect 133 0 121 0;
#X connect 134 0 126 0;
#X connect 135 0 127 0;
#X connect 136 0 128 0;
#X connect 137 0 129 0;
#X connect 138 0 130 0;
#X connect 139 0 131 0;
#X connect 140 0 132 0;
#X connect 141 0 142 1;
#X connect 142 0 143 0;
#X connect 143 0 153 1;
#X connect 144 0 149 0;
#X connect 146 0 147 0;
#X connect 147 0 144 0;
#X connect 150 0 147 0;
#X connect 151 0 155 0;
#X connect 153 0 154 0;
#X connect 154 0 151 0;
#X connect 156 0 154 0;
#X connect 157 0 158 0;
#X connect 158 0 159 0;
#X connect 159 0 156 0 32.................R....7gA..fD....eX...LB....;
#X connect 159 0 82 0 32.................R.....t...fD....fK...LB....;
#X connect 159 0 81 0 32.................R....fT...fD....HE...LB....;
#X connect 159 0 150 0 32.................S....bIA..vD....WR...LB....;
#X connect 159 0 97 0 32.................R....rI...fD....aB...LB....;
#X restore 7 953 pd sendOSC;
#X obj 876 528 else/bpm -samps;
#X obj 699 25 declare -path cyclone -path else;
#X obj 7 469 sampler-absPres 5 36 4 28;
#X obj 7 585 sampler-absPres 6 37 5 29;
#X obj 7 817 sampler-absPres 8 39 7 31;
#N canvas 0 22 450 300 tap 0;
#X obj 866 429 timer;
#X msg 932 370 tempo 1 msec;
#X floatatom 866 465 11 0 0 0 - - - 12;
#X obj 866 354 t b b;
#X obj 932 337 loadbang;
#X obj 866 501 t f f;
#X obj 882 604 gate 2, f 10;
#X obj 882 539 > 2000;
#X obj 882 570 + 1;
#X msg 933 633 zlclear;
#X obj 882 704 cyclone/zl.median;
#X obj 882 734 cyclone/!/ 60000;
#X obj 882 667 cyclone/zl.stream 3;
#X obj 739 763 metro;
#X obj 739 798 s clic;
#X obj 727 667 loadbang;
#X msg 730 729 1;
#X obj 866 324 inlet;
#X obj 882 770 s glob-bpm;
#X floatatom 1003 734 5 0 0 0 - - - 12;
#X floatatom 981 770 5 0 0 0 - - - 12;
#X obj 772 729 !/ 60000;
#X obj 772 694 r glob-bpm+;
#X connect 0 0 2 0;
#X connect 1 0 0 0;
#X connect 2 0 5 0;
#X connect 3 0 0 0;
#X connect 3 1 0 1;
#X connect 4 0 1 0;
#X connect 5 0 6 1 32.................E....HD...PA....BA...zD....;
#X connect 5 1 7 0;
#X connect 6 0 12 0;
#X connect 6 1 9 0;
#X connect 7 0 8 0;
#X connect 8 0 6 0;
#X connect 9 0 12 0;
#X connect 10 0 11 0;
#X connect 10 0 19 0;
#X connect 11 0 18 0;
#X connect 11 0 20 0;
#X connect 12 0 10 0;
#X connect 13 0 14 0;
#X connect 15 0 16 0;
#X connect 16 0 13 0;
#X connect 17 0 3 0;
#X connect 21 0 13 1;
#X connect 22 0 21 0;
#X restore 729 821 pd tap;
#X obj 729 738 bng 68 250 50 0 empty tap TAP\ TEMPO 6 7 0 10 #e4e4e4 #4d4d4d #373737;
#X floatatom 763 851 5 0 0 1 BPM glob-bpm glob-bpm+ 24;
#X obj 729 856 bng 25 250 50 0 empty clic empty 17 7 0 10 #e4e4e4 #4d4d4d #373737;
#X obj 702 391 bng 54 250 50 0 empty empty stop 15 6 0 10 #e4e4e4 #4d4d4d #373737;
#X obj 702 455 s all-stop;
#X obj 876 495 r glob-bpm+;
#X obj 831 588 button 25 25 228 228 228 77 77 77 0;
#X obj 699 58 tgl 25 0 empty shift shift 34 12 0 10 #e4e4e4 #4d4d4d #373737 0 1;
#X obj 7 701 sampler-absPres 7 38 6 30;
#X msg 912 762 \; pd dsp 1 \; glob-bpm 120;
#X obj 1025 821 s max-len;
#X msg 1025 762 300000;
#X text 790 87 TODO: length per track / décrochage speed / retour led /resync length, f 15;
#X obj 1025 791 ms2samps2;
#X connect 0 0 3 0;
#X connect 1 0 7 0;
#X connect 4 0 16 0;
#X connect 5 0 17 0;
#X connect 7 0 0 0;
#X connect 8 0 9 0;
#X connect 9 0 11 0;
#X connect 11 0 10 0;
#X connect 18 0 24 8 32.................VD...vH...fEA...LB...Hz....;
#X connect 18 0 24 0;
#X connect 19 0 24 1 32.................mE...DA...vYA...Q....3r....;
#X connect 19 0 24 9 32.................MD...zI...PCA...cB...3r....;
#X connect 20 0 24 11 32.................hB....L...fn.....C...Xd....;
#X connect 20 0 24 3;
#X connect 21 0 40 0;
#X connect 21 0 42 0;
#X connect 23 0 24 2;
#X connect 23 0 24 10;
#X connect 25 0 1 0;
#X connect 27 0 24 4;
#X connect 27 0 24 12;
#X connect 28 0 24 5;
#X connect 28 0 24 13;
#X connect 29 0 24 7;
#X connect 29 0 24 15;
#X connect 31 0 30 0;
#X connect 34 0 35 0;
#X connect 36 0 25 0;
#X connect 37 0 0 0;
#X connect 39 0 24 6;
#X connect 39 0 24 14;
#X connect 42 0 44 0;
#X connect 44 0 41 0;
#X coords 0 0 1 1 1075 976 0;
