#N canvas 827 239 830 497 12;
#X declare -path cyclone -path else;
#X obj 25 188 samplerate~;
#X obj 25 155 bng 25 250 50 0 empty empty empty 17 7 0 10 #e4e4e4 #4d4d4d #373737;
#X msg 35 514 \; pd dsp \$1;
#X text 71 478 DSP on/off;
#X obj 37 479 tgl 21 0 empty empty empty 0 -11 0 12 #fcfcfc #000000 #000000 0 1;
#X floatatom 186 453 5 0 0 0 - - - 12;
#X floatatom 186 617 12 0 0 0 - - - 16;
#X obj 186 554 * 4;
#X text 233 545 4 beats;
#X obj 186 415 bng 25 250 50 0 empty empty empty 17 7 0 10 #e4e4e4 #4d4d4d #373737;
#X obj 25 128 loadbang;
#X floatatom 25 216 5 0 0 0 - - - 16;
#X obj 25 244 * 60;
#X text 71 238 1 min;
#X obj 217 486 s glob-bpm;
#X obj 25 272 s init-length;
#X obj 186 659 s all-len;
#X obj 156 67 bng 42 250 50 0 empty empty empty 17 7 0 10 #e4e4e4 #4d4d4d #373737;
#X text 235 33 sync;
#X text 163 33 clear;
#X obj 235 67 bng 42 250 50 0 empty empty empty 17 7 0 10 #e4e4e4 #4d4d4d #373737;
#X text 233 573 4 bar;
#X obj 186 582 * 4;
#X obj 156 187 r mode;
#X msg 156 222 set \$1;
#X obj 156 364 s mode;
#X obj 157 253 vradio 23 1 0 4 empty empty empty 0 -8 0 10 #e3dfd9 #5a5a5a #5a5a5a 0;
#X text 193 252 play;
#X text 193 278 rec;
#X text 193 305 clear;
#X text 193 326 sync;
#X obj 156 131 s all-clear;
#X obj 235 131 s all-sync;
#X obj 429 82 sampler-absPres 1 32 0 24;
#X obj 429 290 sampler-absPres 2 33 1 25;
#X obj 821 290 sampler-absPres 4 35 3 27;
#X obj 35 449 loadbang;
#N canvas 705 263 947 652 midi 0;
#X obj 154 105 prepend set;
#X msg 154 137 7 42 89;
#X obj 25 147 route 7;
#X obj 25 182 route 41 42 43 44;
#X obj 170 182 route 89 90 91 92;
#X obj 298 182 route 97 98 99 100;
#X obj 194 339 > 64;
#X obj 172 399 > 64;
#X obj 298 399 > 64;
#X obj 322 339 > 64;
#X obj 434 182 route 13 14 15 16;
#X obj 571 399 > 64;
#X obj 593 339 > 64;
#X obj 571 182 route 29 30 31 32;
#X obj 978 184 route 57 58 59 60;
#X obj 901 580 s midiout;
#X obj 901 397 r mode;
#X obj 1116 222 > 64;
#X obj 1164 222 > 64;
#X obj 1116 260 sel 1;
#X obj 1164 260 sel 1;
#X msg 1118 297 0;
#X msg 1159 297 1;
#X obj 723 182 route 21 22 23 24;
#X obj 900 222 > 64;
#X obj 1009 222 > 64;
#X obj 1009 344 s mode;
#X msg 901 461 127 0 0 0;
#X msg 982 461 0 127 0 0;
#X msg 901 529 240 0 32 41 2 17 120 6 42 \$1 247 \, 240 0 32 41 2 17 120 6 43 \$2 247 \, 240 0 32 41 2 17 120 6 40 \$3 247 \, 240 0 32 41 2 17 120 6 41 \$4 247;
#X obj 901 426 sel 0 1 2 3, f 50;
#N canvas 733 172 450 300 tmpMode 0;
#X obj 134 108 r mode;
#X obj 127 161 i;
#X obj 99 53 sel 1 0;
#X obj 102 202 i;
#X obj 69 91 t b b;
#X obj 99 18 inlet;
#X obj 52 179 outlet;
#X obj 61 246 outlet;
#X connect 0 0 1 1;
#X connect 1 0 3 1;
#X connect 2 0 4 0;
#X connect 2 1 3 0;
#X connect 3 0 7 0;
#X connect 4 0 6 0;
#X connect 4 1 1 0;
#X connect 5 0 2 0;
#X restore 900 260 pd tmpMode;
#N canvas 733 172 450 300 tmpMode 0;
#X obj 211 117 r mode;
#X obj 204 170 i;
#X obj 176 62 sel 1 0;
#X obj 179 211 i;
#X obj 146 100 t b b;
#X obj 176 27 inlet;
#X obj 129 188 outlet;
#X obj 138 255 outlet;
#X connect 0 0 1 1;
#X connect 1 0 3 1;
#X connect 2 0 4 0;
#X connect 2 1 3 0;
#X connect 3 0 7 0;
#X connect 4 0 6 0;
#X connect 4 1 1 0;
#X connect 5 0 2 0;
#X restore 1009 260 pd tmpMode;
#X msg 900 297 3;
#X msg 1011 297 2;
#X msg 1063 461 0 0 0 127;
#X msg 1144 461 0 0 127 0;
#X obj 25 399 / 127;
#X obj 47 339 / 127;
#X obj 25 432 s 1-in+;
#X obj 172 432 s 1-punch+;
#X obj 434 432 s 1-speed+;
#X obj 571 432 s 1-reverse+;
#X obj 723 432 s 1-intens+;
#X obj 47 369 s 2-in+;
#X obj 194 369 s 2-punch+;
#X obj 454 368 s 2-speed+;
#X obj 593 368 s 2-reverse+;
#X obj 745 368 s 2-intens+;
#X obj 434 399 - 63;
#X obj 454 339 - 63;
#X obj 322 368 s 2-recplay+;
#X obj 298 432 s 1-recplay+;
#X text 978 146 mode;
#X obj 70 277 / 127;
#X obj 93 217 / 127;
#X obj 93 247 s 4-in+;
#X obj 71 310 s 3-in+;
#X obj 236 217 > 64;
#X obj 214 277 > 64;
#X obj 236 247 s 4-punch+;
#X obj 214 310 s 3-punch+;
#X obj 347 278 > 64;
#X obj 371 218 > 64;
#X obj 347 311 s 3-recplay+;
#X obj 371 247 s 4-recplay+;
#X obj 475 278 - 63;
#X obj 495 218 - 63;
#X obj 495 247 s 4-speed+;
#X obj 475 311 s 3-speed+;
#X obj 615 278 > 64;
#X obj 637 218 > 64;
#X obj 615 311 s 3-reverse+;
#X obj 637 247 s 4-reverse+;
#X obj 767 311 s 3-intens+;
#X obj 789 247 s 4-intens+;
#X obj 270 14 r midiout;
#X obj 723 399 / 64;
#X obj 745 339 / 64;
#X obj 767 278 / 64;
#X obj 789 218 / 64;
#X obj 25 19 else/osc.receive 9000;
#X obj 41 47 print MIDI_IN;
#X obj 25 74 else/osc.route /midi;
#X obj 443 92 else/osc.send 9001;
#X msg 469 45 connect 127.0.0.1 9001;
#X obj 470 18 loadbang;
#X obj 443 127 tgl 19 0 empty empty empty 0 -10 0 12 #fcfcfc #000000 #000000 0 1;
#X obj 268 49 cyclone/prepend /midi_raw;
#X connect 0 0 1 0;
#X connect 2 0 3 0;
#X connect 3 0 37 0;
#X connect 3 1 38 0;
#X connect 3 2 54 0;
#X connect 3 3 55 0;
#X connect 3 4 4 0;
#X connect 4 0 7 0;
#X connect 4 1 6 0;
#X connect 4 2 59 0;
#X connect 4 3 58 0;
#X connect 4 4 5 0;
#X connect 5 0 8 0;
#X connect 5 1 9 0;
#X connect 5 2 62 0;
#X connect 5 3 63 0;
#X connect 5 4 10 0;
#X connect 6 0 45 0;
#X connect 7 0 40 0;
#X connect 8 0 52 0;
#X connect 9 0 51 0;
#X connect 10 0 49 0;
#X connect 10 1 50 0;
#X connect 10 2 66 0;
#X connect 10 3 67 0;
#X connect 10 4 13 0;
#X connect 11 0 42 0;
#X connect 12 0 47 0;
#X connect 13 0 11 0;
#X connect 13 1 12 0;
#X connect 13 2 70 0;
#X connect 13 3 71 0;
#X connect 13 4 23 0;
#X connect 14 0 24 0;
#X connect 14 1 25 0;
#X connect 14 2 17 0;
#X connect 14 3 18 0;
#X connect 16 0 30 0;
#X connect 17 0 19 0;
#X connect 18 0 20 0;
#X connect 19 0 21 0;
#X connect 20 0 22 0;
#X connect 21 0 26 0;
#X connect 22 0 26 0;
#X connect 23 0 77 0;
#X connect 23 1 78 0;
#X connect 23 2 79 0;
#X connect 23 3 80 0;
#X connect 23 4 14 0;
#X connect 24 0 31 0;
#X connect 25 0 32 0;
#X connect 27 0 29 0;
#X connect 28 0 29 0;
#X connect 29 0 15 0;
#X connect 30 0 27 0;
#X connect 30 1 28 0;
#X connect 30 2 35 0;
#X connect 30 3 36 0;
#X connect 31 0 33 0;
#X connect 31 1 26 0;
#X connect 32 0 34 0;
#X connect 32 1 26 0;
#X connect 33 0 26 0;
#X connect 34 0 26 0;
#X connect 35 0 29 0;
#X connect 36 0 29 0;
#X connect 37 0 39 0;
#X connect 38 0 44 0;
#X connect 49 0 41 0;
#X connect 50 0 46 0;
#X connect 54 0 57 0;
#X connect 55 0 56 0;
#X connect 58 0 60 0;
#X connect 59 0 61 0;
#X connect 62 0 64 0;
#X connect 63 0 65 0;
#X connect 66 0 69 0;
#X connect 67 0 68 0;
#X connect 70 0 72 0;
#X connect 71 0 73 0;
#X connect 76 0 88 0;
#X connect 77 0 43 0;
#X connect 78 0 48 0;
#X connect 79 0 74 0;
#X connect 80 0 75 0;
#X connect 81 0 82 0;
#X connect 81 0 83 0;
#X connect 83 0 0 0;
#X connect 83 0 2 0;
#X connect 84 0 87 0;
#X connect 85 0 84 0;
#X connect 86 0 85 0;
#X connect 88 0 84 0;
#X restore 249 216 pd midi;
#X obj 821 82 sampler-absPres 3 34 2 26;
#N canvas 607 381 1029 618 sendOSC 1;
#X obj 159 151 i;
#X obj 81 421 tgl 19 0 empty empty empty 0 -8 0 10 #dfdfdf #000000 #000000 0 1;
#X text 107 420 <-- connection status;
#X obj 159 34 inlet~;
#X obj 265 34 inlet~;
#X obj 371 34 inlet~;
#X obj 477 34 inlet~;
#X obj 265 150 i;
#X obj 371 150 i;
#X obj 477 150 i;
#X obj 81 314 tgl 25 0 empty empty empty 17 7 0 10 #e3dfd9 #5a5a5a #5a5a5a 0 1;
#X obj 81 356 gate 1 1;
#X msg 608 34 50;
#X msg 30 524 disconnect;
#X obj 696 485 tgl 19 0 empty empty empty 0 -8 0 10 #dfdfdf #000000 #000000 0 1;
#X obj 722 388 loadbang;
#X obj 752 68 print OSC_IN;
#X obj 731 243 print;
#X msg 731 210 connect \$1 8000, f 31;
#X msg 696 361 /getIP;
#X obj 81 451 print Klax_1_connected;
#X obj 134 220 list;
#X msg 166 322 /motorAll 0 0 0 0;
#X obj 15 187 metro 20;
#X msg 569 34 1;
#X obj 159 96 * 255;
#X obj 265 96 * 255;
#X obj 371 96 * 255;
#X obj 477 96 * 255;
#X obj 159 124 clip 0 255;
#X obj 265 124 clip 0 255;
#X obj 371 124 clip 0 255;
#X obj 477 124 clip 0 255;
#X obj 731 179 cyclone/tosymbol;
#X obj 656 32 else/osc.receive 8001;
#X obj 657 104 else/osc.route /ip;
#X obj 696 449 else/osc.send 8000;
#X obj 81 392 else/osc.send 8000;
#X obj 166 286 cyclone/prepend set;
#X obj 134 252 cyclone/prepend /motorAll;
#X obj 15 151 cyclone/loadmess 1;
#X obj 159 70 else/s2f~ 10;
#X obj 265 70 else/s2f~ 10;
#X obj 371 70 else/s2f~ 10;
#X obj 477 70 else/s2f~ 10;
#X obj 159 186 cyclone/pak 0 0 0 0;
#X obj 657 140 route Klax_1 Klax_2 Klax_3 Klax_4 Klax_5;
#X msg 722 424 connect 10.0.0.255 8000;
#X msg 30 560 connect 10.0.0.15 8000;
#X text 300 581 KLAX5 10.0.0.15;
#X text 300 487 KLAX1 10.0.0.11;
#X text 300 510 KLAX2 10.0.0.12;
#X text 300 557 KLAX3 10.0.0.13;
#X text 299 535 KLAX4 10.0.0.14;
#X obj 696 302 cyclone/loadmess 1;
#X obj 696 333 metro 5000;
#X connect 0 0 45 0;
#X connect 1 0 20 0;
#X connect 3 0 41 0;
#X connect 4 0 42 0;
#X connect 5 0 43 0;
#X connect 6 0 44 0;
#X connect 7 0 45 1;
#X connect 8 0 45 2;
#X connect 9 0 45 3;
#X connect 10 0 11 0;
#X connect 11 0 37 0;
#X connect 12 0 41 1;
#X connect 12 0 42 1;
#X connect 12 0 43 1;
#X connect 12 0 44 1;
#X connect 13 0 37 0;
#X connect 15 0 47 0;
#X connect 18 0 17 0;
#X connect 18 0 37 0;
#X connect 19 0 36 0;
#X connect 21 0 39 0;
#X connect 23 0 21 0;
#X connect 24 0 41 1;
#X connect 24 0 42 1;
#X connect 24 0 43 1;
#X connect 24 0 44 1;
#X connect 25 0 29 0;
#X connect 26 0 30 0;
#X connect 27 0 31 0;
#X connect 28 0 32 0;
#X connect 29 0 0 0;
#X connect 30 0 7 0;
#X connect 31 0 8 0;
#X connect 32 0 9 0;
#X connect 33 0 18 0;
#X connect 34 0 16 0;
#X connect 34 0 35 0;
#X connect 35 0 46 0;
#X connect 36 0 14 0;
#X connect 37 0 1 0;
#X connect 38 0 22 0;
#X connect 39 0 11 1;
#X connect 39 0 38 0;
#X connect 40 0 23 0;
#X connect 41 0 25 0;
#X connect 42 0 26 0;
#X connect 43 0 27 0;
#X connect 44 0 28 0;
#X connect 45 0 21 1;
#X connect 46 3 33 0;
#X connect 47 0 36 0;
#X connect 48 0 37 0;
#X connect 54 0 55 0;
#X connect 55 0 19 0;
#X restore 450 521 pd sendOSC;
#X obj 186 514 else/bpm -samps;
#X obj 233 415 cyclone/loadmess 76;
#X obj 9 11 declare -path cyclone -path else;
#X connect 0 0 11 0;
#X connect 1 0 0 0;
#X connect 4 0 2 0;
#X connect 5 0 14 0;
#X connect 5 0 40 0;
#X connect 6 0 16 0;
#X connect 7 0 22 0;
#X connect 9 0 5 0;
#X connect 10 0 1 0;
#X connect 11 0 12 0;
#X connect 12 0 15 0;
#X connect 17 0 31 0;
#X connect 20 0 32 0;
#X connect 22 0 6 0;
#X connect 23 0 24 0;
#X connect 24 0 26 0;
#X connect 26 0 25 0;
#X connect 33 0 39 0;
#X connect 34 0 39 1;
#X connect 35 0 39 3;
#X connect 36 0 4 0;
#X connect 38 0 39 2;
#X connect 40 0 7 0;
#X connect 41 0 5 0;
