#N canvas 546 134 541 255 10;
#X obj 92 61 inlet;
#X obj 92 197 outlet;
#X obj 92 168 *;
#X obj 160 118 samplerate~;
#X obj 163 88 bng 19 250 50 0 empty empty empty 17 7 0 10 #dfdfdf #000000 #000000;
#X obj 163 61 receive pd-dsp-started;
#X obj 160 152 / 1000;
#X connect 0 0 2 0;
#X connect 2 0 1 0;
#X connect 3 0 6 0;
#X connect 4 0 3 0;
#X connect 5 0 4 0;
#X connect 6 0 2 1;
