#N canvas 733 172 450 300 12;
#X obj 46 295 vline~;
#X obj 177 593 xfade~ lin;
#N canvas 733 172 450 300 changed 0;
#X obj 547 363 tgl 21 0 empty empty empty 0 -11 0 12 #fcfcfc #000000 #000000 0 1;
#X obj 545 393 * 2;
#X obj 545 425 - 1;
#X obj 545 489 vline~;
#X obj 545 529 outlet~;
#X msg 545 457 \$1 5;
#X obj 545 324 inlet;
#X connect 0 0 1 0;
#X connect 1 0 2 0;
#X connect 2 0 5 0;
#X connect 3 0 4 0;
#X connect 5 0 3 0;
#X connect 6 0 0 0;
#X restore 357 300 pd changed;
#X obj 579 707 xfade~ lin;
#X obj 856 450 prepend speed;
#X msg 46 266 \$1 1;
#N canvas 733 172 450 300 reverse 0;
#X obj 1102 497 gate 2 1;
#X obj 1134 537 * -1;
#X obj 1091 388 + 1;
#X obj 1093 355 inlet;
#X obj 1022 355 inlet;
#X obj 1102 585 outlet;
#X obj 1091 419 t b f;
#X obj 1133 461 f 100;
#X connect 0 0 5 0;
#X connect 0 1 1 0;
#X connect 1 0 5 0;
#X connect 2 0 6 0;
#X connect 3 0 2 0;
#X connect 4 0 7 0 32.................LA...7F....S....uA...bE....;
#X connect 6 0 7 0 32.................L....nB....C....p....bA....;
#X connect 6 1 0 0;
#X connect 7 0 0 1;
#X restore 856 403 pd reverse;
#X obj 248 687 loadbang;
#X obj 46 213 inlet;
#X obj 224 68 inlet;
#X obj 856 59 inlet;
#X obj 905 321 inlet;
#X obj 579 932 outlet~;
#X text 280 790 sync;
#X obj 669 449 bng 25 250 50 0 empty empty empty 17 7 0 10 #e4e4e4 #4d4d4d #373737;
#X obj 325 794 bng 25 250 50 0 empty empty empty 17 7 0 10 #e4e4e4 #4d4d4d #373737;
#X msg 248 715 continue 0;
#X obj 528 330 tgl 41 0 empty empty empty 0 -11 0 12 #fcfcfc #000000 #000000 0 1;
#X obj 856 360 * 100;
#X obj 1172 244 i;
#X msg 1172 275 resize \$1;
#X obj 1207 482 bng 19 250 50 0 empty empty empty 17 7 0 10 #dfdfdf #000000 #000000;
#X obj 517 72 inlet;
#X obj 1279 72 inlet;
#X msg 1279 257 const 0;
#X obj 1000 562 bng 25 250 50 0 empty empty empty 17 7 0 10 #e4e4e4 #4d4d4d #373737;
#X obj 1519 88 inlet;
#X msg 1521 343 0 \, 1;
#X msg 1355 197 color 900 \, edit 0 \, style 0 \, width 3 \, vis 1, f 11;
#X obj 1355 159 loadbang;
#X text 1327 71 clear;
#X text 1172 134 resize;
#X text 1565 87 sync;
#X text 945 320 reverse;
#X text 897 127 speed;
#X text 438 136 record;
#X text 270 66 punch;
#X text 579 325 rec&play;
#X text 299 202 play;
#X obj 856 525 tabplayer~ -loop 1 \$1-track;
#X obj 184 760 tabwriter~ -loop 1 \$1-track;
#X obj 528 413 tabplayer~ -loop 1 \$1-track;
#X obj 425 167 s \$1-rec;
#X obj 1236 343 s \$1-track;
#X obj 1172 161 r \$1-len;
#X obj 46 59 float \$1;
#X floatatom 46 89 4 0 0 0 - - - 36;
#X obj 46 22 loadbang;
#X obj 1196 196 r all-len;
#X obj 1355 433 float \$1;
#X obj 1355 366 loadbang;
#X obj 1204 513 array size;
#X msg 1355 461 symbol \$1-track;
#X obj 1355 397 bng 25 250 50 0 empty empty empty 17 7 0 10 #e3dfd9 #5a5a5a #5a5a5a;
#X obj 1204 309 t b a;
#X obj 380 30 r mode;
#X obj 380 72 + 1;
#X obj 528 293 r \$1-play;
#X obj 1075 688 r \$1-play;
#X obj 224 100 s \$1-punch;
#X obj 357 271 r \$1-punch;
#X obj 1151 688 r \$1-rec;
#X obj 987 688 r \$1-punch;
#N canvas 733 172 450 300 2but 0;
#X obj 68 161 * 2;
#X obj 110 161 * 4;
#X obj 36 202 +;
#X obj 39 236 +;
#X obj 34 89 pak 0 0 0;
#X obj 36 126 unpack 0 0 0;
#X floatatom 39 269 5 0 0 0 - - - 12;
#X msg 39 336 60;
#X msg 89 336 63;
#X msg 140 336 67;
#X obj 26 43 inlet;
#X obj 68 43 inlet;
#X obj 110 43 inlet;
#X obj 39 458 s midiout;
#X obj 39 299 sel 2 6 7 0, f 32;
#X msg 190 336 0;
#X obj 39 380 pack 0 0, f 30;
#X msg 39 418 240 0 32 41 2 17 120 6 \$2 \$1 247;
#X obj 224 43 inlet;
#X obj 301 573 s \$1-state+;
#X msg 299 358 punch;
#X msg 315 392 recording;
#X msg 370 466 playing;
#X msg 402 499 stopped;
#X obj 301 539 prepend set;
#X obj 616 617 s \$1-stateCanvas;
#X msg 346 432 direct;
#X obj 299 292 sel 7 6 3 2 1 0, f 31;
#X msg 511 488 13;
#X msg 586 488 14;
#X msg 671 488 15;
#X msg 768 488 16;
#X msg 861 488 18;
#X msg 600 582 color \$1;
#X connect 0 0 2 1;
#X connect 1 0 3 1;
#X connect 2 0 3 0;
#X connect 3 0 6 0;
#X connect 3 0 27 0;
#X connect 4 0 5 0;
#X connect 5 0 2 0;
#X connect 5 1 0 0;
#X connect 5 2 1 0;
#X connect 6 0 14 0;
#X connect 7 0 16 0;
#X connect 8 0 16 0;
#X connect 9 0 16 0;
#X connect 10 0 4 0;
#X connect 11 0 4 1;
#X connect 12 0 4 2;
#X connect 14 0 7 0;
#X connect 14 1 8 0;
#X connect 14 2 9 0;
#X connect 14 3 15 0;
#X connect 15 0 16 0;
#X connect 16 0 17 0;
#X connect 17 0 13 0;
#X connect 18 0 16 1;
#X connect 20 0 24 0;
#X connect 21 0 24 0;
#X connect 22 0 24 0;
#X connect 23 0 24 0;
#X connect 24 0 19 0;
#X connect 26 0 24 0;
#X connect 27 0 20 0;
#X connect 27 0 28 0;
#X connect 27 1 21 0;
#X connect 27 1 29 0;
#X connect 27 2 26 0;
#X connect 27 2 30 0;
#X connect 27 3 31 0;
#X connect 27 3 22 0;
#X connect 27 4 26 0;
#X connect 27 4 30 0;
#X connect 27 5 32 0;
#X connect 27 5 23 0;
#X connect 28 0 33 0;
#X connect 29 0 33 0;
#X connect 30 0 33 0;
#X connect 31 0 33 0;
#X connect 32 0 33 0;
#X connect 33 0 25 0;
#X restore 1014 824 pd 2but;
#X obj 1170 768 float \$2;
#X obj 1170 733 loadbang;
#X msg 1067 242 2;
#X msg 996 242 1;
#X msg 1028 242 1.5;
#X msg 908 242 0.5;
#X msg 945 242 0.75;
#X msg 856 242 0.25;
#X msg 1105 242 4;
#N canvas 733 172 450 300 conv 0;
#X obj 898 294 i;
#X obj 898 261 / 21;
#X obj 898 328 sel 0 1 2 3 4 5 6;
#X obj 898 226 inlet;
#X obj 856 388 outlet;
#X obj 908 388 outlet;
#X obj 945 388 outlet;
#X obj 996 388 outlet;
#X obj 1028 388 outlet;
#X obj 1067 388 outlet;
#X obj 1105 388 outlet;
#X connect 0 0 2 0;
#X connect 1 0 0 0 32.................G....P....vA....D....3.....;
#X connect 2 0 4 0;
#X connect 2 1 5 0;
#X connect 2 2 6 0;
#X connect 2 3 7 0;
#X connect 2 4 8 0;
#X connect 2 5 9 0;
#X connect 2 6 10 0;
#X connect 3 0 1 0 32.................H..........B..........A....;
#X restore 856 203 pd conv;
#X obj 856 283 f;
#N canvas 733 172 450 300 speedBut 0;
#X msg 169 115 60;
#X msg 248 115 63;
#X msg 53 115 67;
#X msg 130 115 62;
#X msg 288 115 67;
#X msg 209 115 62;
#X msg 91 115 63;
#X obj 53 76 spread 21 42 63 84 105 125;
#X obj 53 248 s midiout;
#X obj 53 40 inlet;
#X obj 53 171 pack 0 0, f 41;
#X obj 315 40 inlet;
#X msg 53 211 240 0 32 41 2 17 120 6 \$2 \$1 247;
#X connect 0 0 10 0;
#X connect 1 0 10 0;
#X connect 2 0 10 0;
#X connect 3 0 10 0;
#X connect 4 0 10 0;
#X connect 5 0 10 0;
#X connect 6 0 10 0;
#X connect 7 0 2 0;
#X connect 7 1 6 0;
#X connect 7 2 3 0;
#X connect 7 3 0 0;
#X connect 7 4 5 0;
#X connect 7 5 1 0;
#X connect 7 6 4 0;
#X connect 9 0 7 0;
#X connect 10 0 12 0;
#X connect 11 0 10 1;
#X connect 12 0 8 0;
#X restore 922 167 pd speedBut;
#X obj 980 100 loadbang;
#X obj 980 135 float \$3;
#N canvas 733 172 450 300 sync? 0;
#X obj 842 400 gate;
#X obj 842 429 t 0 b;
#X text 889 450 sync;
#X obj 799 291 zl.change;
#X obj 842 319 sel 1;
#X msg 845 349 1;
#X obj 889 417 bng 25 250 50 0 empty empty empty 17 7 0 10 #e4e4e4 #4d4d4d #373737;
#X obj 799 250 inlet;
#X obj 856 525 outlet;
#X connect 0 0 1 0;
#X connect 1 0 0 0 48.................I....z9+++eB....s++++i7+++O.....H++++C....Pz++++;
#X connect 1 1 6 0;
#X connect 1 1 8 0;
#X connect 3 1 4 0;
#X connect 4 0 5 0;
#X connect 5 0 0 0;
#X connect 7 0 3 0;
#X restore 817 482 pd sync? (unused);
#X obj 1521 380 s \$1-play;
#N canvas 733 172 450 300 recordClearResize 0;
#X obj 309 337 sel 1 0;
#X obj 488 633 i;
#X obj 309 618 ms2samps;
#X obj 309 375 realtime;
#X obj 309 308 tgl 21 0 empty empty empty 0 -11 0 12 #fcfcfc #000000 #000000 0 1;
#X obj 309 250 change;
#X obj 481 375 sel 1;
#X obj 309 280 t f f, f 15;
#X obj 472 469 t b b b;
#X msg 520 533 const 0;
#X obj 295 413 t b b f;
#X msg 200 651 0 \, 1;
#X msg 385 543 0 \, 1;
#X obj 520 562 s \$1-track;
#X obj 309 221 r \$1-rec;
#X obj 398 699 s \$1-len;
#X obj 520 595 r init-length;
#X obj 191 563 del 50;
#X obj 385 572 s \$1-play;
#X obj 200 683 s \$1-play;
#X connect 0 0 3 0;
#X connect 0 1 3 1;
#X connect 1 0 15 0;
#X connect 2 0 15 0;
#X connect 3 0 10 0;
#X connect 4 0 0 0;
#X connect 5 0 7 0;
#X connect 6 0 8 0;
#X connect 7 0 4 0;
#X connect 7 1 6 0;
#X connect 8 0 12 0;
#X connect 8 1 1 0;
#X connect 8 2 9 0;
#X connect 9 0 13 0;
#X connect 10 1 17 0;
#X connect 10 2 2 0;
#X connect 11 0 19 0;
#X connect 12 0 18 0;
#X connect 14 0 5 0;
#X connect 16 0 1 1;
#X connect 17 0 11 0;
#X restore 649 283 pd recordClearResize;
#X text 46 179 fader input;
#X obj 237 339 r mode;
#X obj 237 370 + 1;
#X obj 262 406 selector~ 2;
#X obj 299 352 sig~ -1;
#X obj 261 137 r \$1-play;
#X obj 254 211 !- 1;
#X obj 254 180 i;
#X obj 254 242 s \$1-play;
#X obj 906 800 outlet;
#X msg 908 762 set \$1;
#X obj 367 167 sel 1;
#X obj 380 106 gate 4 1, f 23;
#X obj 515 167 s \$1-clear;
#X text 538 145 clear;
#X text 626 145 clear;
#X obj 603 167 s \$1-sync;
#X obj 1279 106 s \$1-clear;
#X obj 1279 220 r \$1-clear;
#X obj 1519 120 s \$1-sync;
#X obj 1521 309 r \$1-sync;
#X text 1601 308 sync;
#X obj 1489 275 r all-sync;
#X obj 1270 187 r all-clear;
#X obj 1716 88 inlet;
#X text 1762 87 intens;
#X obj 1716 120 s \$1-intens;
#X obj 612 745 r \$1-intens;
#X msg 612 818 \$1 10;
#X obj 579 894 *~;
#X obj 612 853 vline~ 1;
#X obj 640 777 loadmess 1;
#X obj 743 887 sig2float~ 50;
#N canvas 733 172 450 300 internsBut 0;
#X obj 167 513 * 4;
#X obj 167 557 clip 0 3;
#X obj 167 683 s midiout;
#X obj 167 454 inlet;
#X obj 252 454 inlet;
#X obj 167 599 pack 0 0;
#X msg 167 645 240 0 32 41 2 17 120 6 \$2 \$1 247;
#X connect 0 0 1 0;
#X connect 1 0 5 0;
#X connect 3 0 0 0;
#X connect 4 0 5 1;
#X connect 5 0 6 0;
#X connect 6 0 2 0;
#X restore 783 934 pd internsBut;
#X obj 689 950 outlet;
#X obj 844 863 loadbang;
#X obj 844 898 float \$4;
#X obj 1204 545 samps2ms;
#X obj 1204 574 / 1000;
#X text 1290 544 size sec out;
#X obj 1204 606 s \$1-dur+;
#X obj 976 451 s \$1-spd+;
#X obj 856 129 + 63;
#X obj 367 133 change;
#X obj 976 403 loadmess set 100;
#X obj 457 228 loadmess 0;
#X connect 0 0 1 1;
#X connect 0 0 3 1;
#X connect 1 0 40 0;
#X connect 2 0 3 2;
#X connect 2 0 84 2;
#X connect 3 0 110 0;
#X connect 4 0 39 0;
#X connect 5 0 0 0;
#X connect 6 0 4 0;
#X connect 6 0 78 0;
#X connect 6 0 122 0;
#X connect 7 0 16 0;
#X connect 8 0 5 0;
#X connect 9 0 59 0;
#X connect 10 0 123 0;
#X connect 11 0 6 1;
#X connect 16 0 40 0;
#X connect 17 0 39 0;
#X connect 17 0 41 0;
#X connect 17 0 40 0;
#X connect 18 0 6 0;
#X connect 19 0 20 0;
#X connect 20 0 54 0;
#X connect 21 0 51 0;
#X connect 22 0 93 1;
#X connect 23 0 98 0;
#X connect 24 0 43 0;
#X connect 26 0 100 0;
#X connect 27 0 79 0;
#X connect 28 0 43 0;
#X connect 29 0 28 0;
#X connect 39 0 3 0;
#X connect 39 1 25 0;
#X connect 40 1 15 0;
#X connect 41 0 1 0;
#X connect 41 1 14 0;
#X connect 44 0 19 0;
#X connect 45 0 46 0;
#X connect 47 0 45 0;
#X connect 48 0 19 0;
#X connect 49 0 52 0;
#X connect 50 0 53 0;
#X connect 51 0 118 0;
#X connect 52 0 51 1;
#X connect 53 0 49 0;
#X connect 54 0 21 0;
#X connect 54 1 43 0;
#X connect 55 0 56 0;
#X connect 56 0 93 0;
#X connect 57 0 17 0;
#X connect 58 0 63 1;
#X connect 58 0 91 0;
#X connect 60 0 2 0;
#X connect 61 0 63 2;
#X connect 62 0 63 0;
#X connect 64 0 63 3;
#X connect 65 0 64 0;
#X connect 66 0 74 0;
#X connect 67 0 74 0;
#X connect 68 0 74 0;
#X connect 69 0 74 0;
#X connect 70 0 74 0;
#X connect 71 0 74 0;
#X connect 72 0 74 0;
#X connect 73 0 71 0;
#X connect 73 1 69 0;
#X connect 73 2 70 0;
#X connect 73 3 67 0;
#X connect 73 4 68 0;
#X connect 73 5 66 0;
#X connect 73 6 72 0;
#X connect 74 0 18 0;
#X connect 76 0 77 0;
#X connect 77 0 75 1;
#X connect 78 0 39 0;
#X connect 82 0 83 0;
#X connect 83 0 84 0;
#X connect 84 0 1 2;
#X connect 85 0 84 1;
#X connect 86 0 88 1;
#X connect 87 0 89 0;
#X connect 88 0 87 0;
#X connect 91 0 90 0;
#X connect 92 0 88 0;
#X connect 93 0 124 0;
#X connect 93 1 42 0;
#X connect 93 2 94 0;
#X connect 93 3 97 0;
#X connect 99 0 24 0;
#X connect 101 0 27 0;
#X connect 103 0 27 0;
#X connect 104 0 24 0;
#X connect 105 0 107 0;
#X connect 108 0 109 0;
#X connect 109 0 111 0;
#X connect 110 0 12 0;
#X connect 110 0 113 0;
#X connect 111 0 110 1;
#X connect 112 0 109 0;
#X connect 113 0 114 0;
#X connect 113 0 115 0;
#X connect 116 0 117 0;
#X connect 117 0 114 1;
#X connect 118 0 119 0;
#X connect 119 0 121 0;
#X connect 123 0 73 0;
#X connect 123 0 75 0;
#X connect 124 0 92 0;
#X connect 125 0 122 0;
#X connect 126 0 2 0;
