#N canvas 733 172 683 486 12;
#X obj -1 -1 cnv 15 45 113 empty \$1-stateCanvas empty 20 12 0 14 #14e814 #fcfcfc 0;
#N canvas 0 0 450 250 (subpatch) 0;
#X array \$1-track 352800 float 4;
#X coords 0 1.1 352799 -0.1 310 83 1;
#X restore 362 28 graph;
#X obj 307 30 vsl 22 77 0 1 0 0 \$1-indisp++ \$1-in++ empty 0 -9 0 10 #e4e4e4 #4d4d4d #373737 0 0;
#X obj 335 30 vsl 20 77 0 1 0 0 empty \$1-out++ empty 0 -8 0 10 #e4e4e4 #ff2000 #4d4d4d 0 1;
#X obj 102 28 tgl 41 0 \$1-punch \$1-punch+ empty 0 -11 0 12 #fcfcfc #000000 #000000 0 1;
#X obj 202 28 knob 42 -63 63 0 0 \$1-speed+ \$1-speed++ #E4E4E4 #B7B7B7 #4D4D4D 1 0 0 0 1 270 0 0 0;
#X text 202 2 speed;
#X obj 253 28 tgl 42 0 \$1-reverse+ \$1-reverse++ empty 0 -11 0 12 #fcfcfc #000000 #000000 0 1;
#X obj 152 28 tgl 41 0 \$1-recplay \$1-recplay+ empty 0 -11 0 12 #fcfcfc #000000 #000000 0 1;
#X obj 651 3 bng 20 250 50 0 \$1-clear \$1-clear+ empty 17 7 0 10 #e4e4e4 #4d4d4d #373737;
#X floatatom 485 4 7 0 0 0 - \$1-dur+ - 12;
#X obj 585 3 bng 20 250 50 0 \$1-sync \$1-sync+ empty 17 7 0 10 #e4e4e4 #4d4d4d #373737;
#X text 543 2 sync, f 5;
#X text 610 2 clear;
#X obj 51 28 knob 42 0 2 0 0 \$1-intens \$1-intens++ #E4E4E4 #B7B7B7 #4D4D4D 1 0 0 0 1 270 0 0 0;
#X text 51 2 intens;
#X obj 21 158 outlet~;
#X obj 21 125 sampler-abs \$1 \$2 \$3 \$4, f 22;
#X floatatom 7 41 2 0 0 0 - - - 24;
#X obj 7 -72 loadbang;
#X obj 7 -42 f \$1;
#X text 432 2 dur (s);
#X floatatom 202 70 7 0 0 0 - \$1-spd+ - 10;
#X listbox 51 82 18 0 0 0 - \$1-state+ - 12;
#X text 102 2 punch;
#X text 307 2 in / out;
#X text 152 2 playrec;
#X text 253 2 reverse;
#X connect 17 0 16 0;
#X connect 19 0 20 0;
#X connect 20 0 18 0;
#X coords 0 0 1 1 676 114 2 -1 -1;
