#N canvas 664 154 947 850 12;
#X obj 52 471 vline~;
#N canvas 733 172 450 300 changed 0;
#X obj 173 72 tgl 21 0 empty empty empty 0 -11 0 12 #fcfcfc #000000 #000000 0 1;
#X obj 171 102 * 2;
#X obj 171 134 - 1;
#X obj 171 198 vline~;
#X obj 171 238 outlet~;
#X msg 171 166 \$1 5;
#X obj 171 33 inlet;
#X connect 0 0 1 0;
#X connect 1 0 2 0;
#X connect 2 0 5 0;
#X connect 3 0 4 0;
#X connect 5 0 3 0;
#X connect 6 0 0 0;
#X restore 357 352 pd changed;
#X msg 52 442 \$1 1;
#N canvas 733 172 266 381 reverse 0;
#X obj 130 221 * -1;
#X obj 87 72 + 1;
#X obj 89 39 inlet;
#X obj 18 39 inlet;
#X obj 98 269 outlet;
#X obj 87 103 t b f;
#X obj 129 145 f 100;
#X obj 98 181 cyclone/gate 2 1;
#X connect 0 0 4 0;
#X connect 1 0 5 0;
#X connect 2 0 1 0;
#X connect 3 0 6 0;
#X connect 5 0 6 0;
#X connect 5 1 7 0;
#X connect 6 0 7 1;
#X connect 7 0 4 0;
#X connect 7 1 0 0;
#X restore 856 403 pd reverse;
#X obj 248 687 loadbang;
#X obj 579 932 outlet~;
#X text 280 788 sync;
#X obj 669 449 bng 25 250 50 0 empty empty empty 17 7 0 10 #e4e4e4 #4d4d4d #373737;
#X obj 325 794 bng 25 250 50 0 empty empty empty 17 7 0 10 #e4e4e4 #4d4d4d #373737;
#X msg 248 715 continue 0;
#X obj 528 330 tgl 41 0 empty empty empty 0 -11 0 12 #fcfcfc #000000 #000000 0 1;
#X obj 856 360 * 100;
#X obj 1172 244 i;
#X msg 1172 275 resize \$1;
#X obj 1207 482 bng 19 250 50 0 empty empty empty 17 7 0 10 #dfdfdf #000000 #000000;
#X msg 1279 257 const 0;
#X obj 1000 562 bng 25 250 50 0 empty empty empty 17 7 0 10 #e4e4e4 #4d4d4d #373737;
#X msg 1521 343 0 \, 1;
#X obj 1355 159 loadbang;
#X text 1284 157 clear;
#X text 1172 132 resize;
#X text 945 318 reverse;
#X text 862 160 speed;
#X text 438 134 record;
#X text 439 268 punch;
#X text 579 323 rec&play;
#X text 355 210 play;
#X obj 425 167 s \$1-rec;
#X obj 1236 343 s \$1-track;
#X obj 1172 161 r \$1-len;
#X obj 46 59 float \$1;
#X floatatom 46 89 4 0 0 0 - - - 36;
#X obj 46 22 loadbang;
#X obj 1196 196 r all-len;
#X obj 1355 433 float \$1;
#X obj 1355 366 loadbang;
#X obj 1204 513 array size;
#X msg 1355 461 symbol \$1-track;
#X obj 1355 397 bng 25 250 50 0 empty empty empty 17 7 0 10 #e3dfd9 #5a5a5a #5a5a5a;
#X obj 1204 309 t b a;
#X obj 380 30 r mode;
#X obj 380 72 + 1;
#X obj 528 293 r \$1-play;
#X obj 1075 688 r \$1-play;
#X obj 357 271 r \$1-punch;
#X obj 1151 688 r \$1-rec;
#X obj 987 688 r \$1-punch;
#N canvas 733 172 450 300 2but 0;
#X obj 68 161 * 2;
#X obj 110 161 * 4;
#X obj 36 202 +;
#X obj 39 236 +;
#X obj 36 126 unpack 0 0 0;
#X floatatom 39 269 5 0 0 0 - - - 12;
#X msg 39 336 60;
#X msg 89 336 63;
#X msg 140 336 67;
#X obj 26 43 inlet;
#X obj 68 43 inlet;
#X obj 110 43 inlet;
#X obj 39 458 s midiout;
#X obj 39 299 sel 2 6 7 0, f 32;
#X msg 190 336 0;
#X obj 39 380 pack 0 0, f 30;
#X msg 39 418 240 0 32 41 2 17 120 6 \$2 \$1 247;
#X obj 224 43 inlet;
#X obj 301 573 s \$1-state+;
#X msg 299 358 punch;
#X msg 315 392 recording;
#X msg 412 467 playing;
#X msg 444 500 stopped;
#X obj 616 617 s \$1-stateCanvas;
#X msg 363 442 direct;
#X obj 521 76 sel 7 6 3 2 1 0, f 31;
#X msg 511 488 13;
#X msg 586 488 14;
#X msg 671 488 15;
#X msg 768 488 16;
#X msg 861 488 18;
#X msg 600 582 color \$1;
#X obj 34 89 cyclone/pak 0 0 0;
#X obj 301 539 cyclone/prepend set;
#X obj 967 148 r mode;
#X obj 953 292 cyclone/gate 2 1;
#X floatatom 1009 221 5 0 0 0 - - - 12;
#X obj 960 218 + 1;
#X connect 0 0 2 1;
#X connect 1 0 3 1;
#X connect 2 0 3 0;
#X connect 3 0 5 0;
#X connect 3 0 25 0;
#X connect 4 0 2 0;
#X connect 4 1 0 0;
#X connect 4 2 1 0;
#X connect 5 0 13 0;
#X connect 6 0 15 0;
#X connect 7 0 15 0;
#X connect 8 0 15 0;
#X connect 9 0 32 0;
#X connect 10 0 32 1;
#X connect 11 0 32 2;
#X connect 13 0 6 0;
#X connect 13 1 7 0;
#X connect 13 2 8 0;
#X connect 13 3 14 0;
#X connect 14 0 15 0;
#X connect 15 0 16 0;
#X connect 16 0 12 0;
#X connect 17 0 15 1;
#X connect 19 0 33 0;
#X connect 20 0 33 0;
#X connect 21 0 33 0;
#X connect 22 0 33 0;
#X connect 24 0 33 0;
#X connect 25 0 19 0;
#X connect 25 0 26 0;
#X connect 25 1 20 0;
#X connect 25 1 27 0;
#X connect 25 2 35 1;
#X connect 25 3 29 0;
#X connect 25 3 21 0;
#X connect 25 4 28 0;
#X connect 25 4 24 0;
#X connect 25 5 30 0;
#X connect 25 5 22 0;
#X connect 26 0 31 0;
#X connect 27 0 31 0;
#X connect 28 0 31 0;
#X connect 29 0 31 0;
#X connect 30 0 31 0;
#X connect 31 0 23 0;
#X connect 32 0 4 0;
#X connect 33 0 18 0;
#X connect 34 0 37 0;
#X connect 34 0 36 0;
#X connect 35 0 28 0;
#X connect 35 0 24 0;
#X connect 35 1 19 0;
#X connect 35 1 26 0;
#X connect 37 0 35 0;
#X restore 1014 824 pd 2but;
#X obj 1170 768 float \$2;
#X obj 1170 733 loadbang;
#X msg 1067 242 2;
#X msg 996 242 1;
#X msg 1028 242 1.5;
#X msg 908 242 0.5;
#X msg 945 242 0.75;
#X msg 856 242 0.25;
#X msg 1105 242 4;
#N canvas 733 172 450 300 conv 0;
#X obj 115 131 i;
#X obj 115 98 / 21;
#X obj 115 165 sel 0 1 2 3 4 5 6;
#X obj 115 63 inlet;
#X obj 73 225 outlet;
#X obj 125 225 outlet;
#X obj 162 225 outlet;
#X obj 213 225 outlet;
#X obj 245 225 outlet;
#X obj 284 225 outlet;
#X obj 322 225 outlet;
#X connect 0 0 2 0;
#X connect 1 0 0 0;
#X connect 2 0 4 0;
#X connect 2 1 5 0;
#X connect 2 2 6 0;
#X connect 2 3 7 0;
#X connect 2 4 8 0;
#X connect 2 5 9 0;
#X connect 2 6 10 0;
#X connect 3 0 1 0;
#X restore 856 203 pd conv;
#X obj 856 283 f;
#N canvas 733 172 450 300 speedBut 0;
#X msg 169 115 60;
#X msg 248 115 63;
#X msg 53 115 67;
#X msg 130 115 62;
#X msg 288 115 67;
#X msg 209 115 62;
#X msg 91 115 63;
#X obj 53 248 s midiout;
#X obj 53 40 inlet;
#X obj 53 171 pack 0 0, f 41;
#X obj 315 40 inlet;
#X msg 53 211 240 0 32 41 2 17 120 6 \$2 \$1 247;
#X obj 53 76 else/spread 21 42 63 84 105 125;
#X connect 0 0 9 0;
#X connect 1 0 9 0;
#X connect 2 0 9 0;
#X connect 3 0 9 0;
#X connect 4 0 9 0;
#X connect 5 0 9 0;
#X connect 6 0 9 0;
#X connect 8 0 12 0;
#X connect 9 0 11 0;
#X connect 10 0 9 1;
#X connect 11 0 7 0;
#X connect 12 0 2 0;
#X connect 12 1 6 0;
#X connect 12 2 3 0;
#X connect 12 3 0 0;
#X connect 12 4 5 0;
#X connect 12 5 1 0;
#X connect 12 6 4 0;
#X restore 922 167 pd speedBut;
#X obj 980 100 loadbang;
#X obj 980 135 float \$3;
#N canvas 733 172 450 388 sync? 0;
#X obj 195 220 t 0 b;
#X text 242 241 sync;
#X obj 195 110 sel 1;
#X msg 198 140 1;
#X obj 242 208 bng 25 250 50 0 empty empty empty 17 7 0 10 #e4e4e4 #4d4d4d #373737;
#X obj 153 21 inlet;
#X obj 220 287 outlet;
#X obj 153 62 cyclone/zl.change;
#X obj 196 177 cyclone/gate;
#X connect 0 0 8 0;
#X connect 0 1 4 0;
#X connect 0 1 6 0;
#X connect 2 0 3 0;
#X connect 3 0 8 0;
#X connect 5 0 7 0;
#X connect 7 1 2 0;
#X connect 8 0 0 0;
#X restore 817 482 pd sync? (unused);
#X obj 1521 380 s \$1-play;
#N canvas 733 172 450 300 recordClearResize 0;
#X obj 309 337 sel 1 0;
#X obj 488 633 i;
#X obj 309 375 realtime;
#X obj 309 308 tgl 21 0 empty empty empty 0 -11 0 12 #fcfcfc #000000 #000000 0 1;
#X obj 309 250 change;
#X obj 481 375 sel 1;
#X obj 309 280 t f f, f 15;
#X obj 472 469 t b b b;
#X msg 520 533 const 0;
#X obj 295 413 t b b f;
#X msg 200 651 0 \, 1;
#X msg 385 543 0 \, 1;
#X obj 520 562 s \$1-track;
#X obj 309 221 r \$1-rec;
#X obj 398 699 s \$1-len;
#X obj 191 563 del 50;
#X obj 385 572 s \$1-play;
#X obj 200 683 s \$1-play;
#X obj 309 618 else/ms2samps;
#X obj 488 699 print \$1-INITLEN;
#X obj 520 595 r max-len;
#X connect 0 0 2 0;
#X connect 0 1 2 1;
#X connect 1 0 14 0;
#X connect 1 0 19 0;
#X connect 2 0 9 0;
#X connect 3 0 0 0;
#X connect 4 0 6 0;
#X connect 5 0 7 0;
#X connect 6 0 3 0;
#X connect 6 1 5 0;
#X connect 7 0 11 0;
#X connect 7 1 1 0;
#X connect 7 2 8 0;
#X connect 8 0 12 0;
#X connect 9 1 15 0;
#X connect 9 2 18 0;
#X connect 10 0 17 0;
#X connect 11 0 16 0;
#X connect 13 0 4 0;
#X connect 15 0 10 0;
#X connect 18 0 14 0;
#X connect 18 0 19 0;
#X connect 20 0 1 1;
#X restore 649 283 pd recordClearResize;
#X text 102 372 fader input;
#X obj 237 339 r mode;
#X obj 237 370 + 1;
#X obj 299 352 sig~ -1;
#X obj 261 137 r \$1-play;
#X obj 254 180 i;
#X obj 254 242 s \$1-play;
#X msg 908 762 set \$1;
#X obj 367 167 sel 1;
#X obj 515 167 s \$1-clear;
#X text 538 143 clear;
#X text 626 143 clear;
#X obj 603 167 s \$1-sync;
#X obj 1279 220 r \$1-clear;
#X obj 1521 309 r \$1-sync;
#X text 1601 306 sync;
#X obj 1489 275 r all-sync;
#X obj 1270 187 r all-clear;
#X text 1837 132 intens;
#X obj 603 749 r \$1-intens;
#X obj 579 894 *~;
#N canvas 733 172 450 300 internsBut 0;
#X obj 123 81 * 4;
#X obj 123 125 clip 0 3;
#X obj 123 251 s midiout;
#X obj 123 22 inlet;
#X obj 208 22 inlet;
#X obj 123 167 pack 0 0;
#X msg 123 213 240 0 32 41 2 17 120 6 \$2 \$1 247;
#X connect 0 0 1 0;
#X connect 1 0 5 0;
#X connect 3 0 0 0;
#X connect 4 0 5 1;
#X connect 5 0 6 0;
#X connect 6 0 2 0;
#X restore 783 934 pd internsBut;
#X obj 844 863 loadbang;
#X obj 844 898 float \$4;
#X obj 1204 574 / 1000;
#X text 1310 542 size sec out;
#X obj 1204 606 s \$1-dur+;
#X obj 1035 450 s \$1-spd+;
#X obj 367 133 change;
#X obj 743 887 else/s2f~ 50;
#X obj 619 800 cyclone/loadmess 1;
#X obj 579 707 else/xfade~ lin;
#X obj 184 760 else/tabwriter~ -loop 1 \$1-track;
#X obj 177 593 else/xfade~ lin;
#X obj 262 406 cyclone/selector~ 2;
#X obj 528 413 else/tabplayer~ -loop 1 \$1-track;
#X obj 856 525 else/tabplayer~ -loop 1 \$1-track;
#X obj 856 450 cyclone/prepend speed;
#X obj 1024 413 cyclone/loadmess set 100;
#X obj 1204 545 else/samps2ms;
#X obj 380 309 cyclone/loadmess 0;
#X obj 380 106 cyclone/gate 4 1, f 23;
#X obj 254 211 cyclone/!- 1;
#X obj 15 267 r \$1-in+;
#X obj 15 338 cyclone/prepend set;
#X obj 15 307 cyclone/speedlim 50;
#X obj 15 370 s \$1-in++;
#X obj 93 406 r \$1-indisp++;
#X obj 689 950 s \$1-out++;
#X obj 908 800 s \$1-recplay+;
#X obj 518 72 r \$1-recplay;
#X obj 1831 168 r \$1-intens+;
#X obj 1831 289 cyclone/prepend set;
#X obj 1831 229 cyclone/speedlim 50;
#X obj 1859 200 s \$1-intens;
#X obj 1831 321 s \$1-intens++;
#X obj 1859 257 cyclone/loadmess 1;
#X obj 1024 335 cyclone/prepend set;
#X obj 1122 -18 cyclone/speedlim 50;
#X obj 1122 52 cyclone/prepend set;
#X obj 1122 89 s \$1-speed++;
#X obj 1122 -60 r \$1-speed+;
#X obj 824 -297 r \$1-speed+;
#X obj 914 349 r \$1-reverse+;
#X obj 1024 301 r \$1-reverse+;
#X obj 1024 366 s \$1-reverse++;
#X obj 211 100 r all-stop;
#X msg 213 138 1;
#X msg 1355 197 color 900 \, edit 0 \, style 2 \, width 3 \, vis 1, f 11;
#X obj 742 -122 cyclone/gate 2 1;
#X obj 742 -152 + 1;
#X obj 967 -75 s midiout;
#X obj 965 -224 int;
#X obj 965 -193 + 79;
#X obj 742 -185 r shift;
#X obj 1122 19 - 63;
#X obj 1026 -149 pack 0 0;
#X obj 1075 -228 loadbang;
#X obj 1075 -193 float \$3;
#X msg 967 -108 240 0 32 41 2 17 120 6 \$2 \$1 247;
#X obj 1320 -175 r all-len;
#X obj 1320 -140 / 16;
#X obj 1304 -99 *;
#X obj 1261 -149 max 1;
#X obj 965 -287 / 3.95;
#X connect 0 0 96 1;
#X connect 0 0 98 1;
#X connect 1 0 96 2;
#X connect 1 0 99 2;
#X connect 2 0 0 0;
#X connect 3 0 62 0;
#X connect 3 0 92 0;
#X connect 3 0 102 0;
#X connect 4 0 9 0;
#X connect 9 0 97 0;
#X connect 10 0 97 0;
#X connect 10 0 100 0;
#X connect 10 0 101 0;
#X connect 11 0 3 0;
#X connect 12 0 13 0;
#X connect 13 0 39 0;
#X connect 14 0 36 0;
#X connect 15 0 28 0;
#X connect 17 0 63 0;
#X connect 18 0 133 0;
#X connect 29 0 12 0;
#X connect 30 0 31 0;
#X connect 32 0 30 0;
#X connect 33 0 12 0;
#X connect 34 0 37 0;
#X connect 35 0 38 0;
#X connect 36 0 104 0;
#X connect 37 0 36 1;
#X connect 38 0 34 0;
#X connect 39 0 14 0;
#X connect 39 1 28 0;
#X connect 40 0 41 0;
#X connect 41 0 106 0;
#X connect 42 0 10 0;
#X connect 43 0 47 1;
#X connect 43 0 72 0;
#X connect 44 0 1 0;
#X connect 45 0 47 2;
#X connect 46 0 47 0;
#X connect 48 0 47 3;
#X connect 49 0 48 0;
#X connect 50 0 58 0;
#X connect 51 0 58 0;
#X connect 52 0 58 0;
#X connect 53 0 58 0;
#X connect 54 0 58 0;
#X connect 55 0 58 0;
#X connect 56 0 58 0;
#X connect 57 0 55 0;
#X connect 57 1 53 0;
#X connect 57 2 54 0;
#X connect 57 3 51 0;
#X connect 57 4 52 0;
#X connect 57 5 50 0;
#X connect 57 6 56 0;
#X connect 58 0 11 0;
#X connect 60 0 61 0;
#X connect 61 0 59 1;
#X connect 62 0 101 0;
#X connect 66 0 67 0;
#X connect 67 0 99 0;
#X connect 68 0 99 1;
#X connect 69 0 70 1;
#X connect 70 0 107 0;
#X connect 72 0 114 0;
#X connect 73 0 70 0;
#X connect 78 0 15 0;
#X connect 79 0 17 0;
#X connect 81 0 17 0;
#X connect 82 0 15 0;
#X connect 84 0 85 1;
#X connect 85 0 5 0;
#X connect 85 0 94 0;
#X connect 87 0 88 0;
#X connect 88 0 86 1;
#X connect 89 0 91 0;
#X connect 93 0 73 0;
#X connect 94 0 86 0;
#X connect 94 0 113 0;
#X connect 95 0 85 1;
#X connect 96 0 85 0;
#X connect 97 1 8 0;
#X connect 98 0 97 0;
#X connect 99 0 98 2;
#X connect 100 0 98 0;
#X connect 100 1 7 0;
#X connect 101 0 96 0;
#X connect 101 1 16 0;
#X connect 102 0 101 0;
#X connect 103 0 92 0;
#X connect 104 0 89 0;
#X connect 105 0 1 0;
#X connect 106 0 93 0;
#X connect 106 1 27 0;
#X connect 106 2 74 0;
#X connect 106 3 77 0;
#X connect 107 0 71 0;
#X connect 108 0 110 0;
#X connect 108 0 2 0;
#X connect 109 0 111 0;
#X connect 110 0 109 0;
#X connect 112 0 2 0;
#X connect 115 0 106 1;
#X connect 116 0 118 0;
#X connect 116 0 119 0;
#X connect 117 0 120 0;
#X connect 118 0 117 0;
#X connect 121 0 117 0;
#X connect 122 0 130 0;
#X connect 123 0 140 0;
#X connect 124 0 125 0;
#X connect 127 0 134 1;
#X connect 128 0 3 1;
#X connect 129 0 122 0;
#X connect 131 0 132 0;
#X connect 132 0 70 0;
#X connect 133 0 28 0;
#X connect 134 0 59 0;
#X connect 134 0 57 0;
#X connect 134 0 123 0;
#X connect 134 1 149 0;
#X connect 135 0 134 0;
#X connect 137 0 138 0;
#X connect 137 0 148 0;
#X connect 138 0 141 0;
#X connect 139 0 135 0;
#X connect 140 0 124 0;
#X connect 141 0 144 0;
#X connect 142 0 143 0;
#X connect 143 0 141 1;
#X connect 144 0 136 0;
#X connect 145 0 146 0;
#X connect 146 0 147 1;
#X connect 147 0 12 0;
#X connect 148 0 147 0;
#X connect 149 0 137 0;
