#N canvas 141 239 1516 820 12;
#X obj 25 188 samplerate~;
#X obj 25 155 bng 21 250 50 0 empty empty empty 0 -11 0 12 #fcfcfc #000000 #000000;
#X msg 20 400 \; pd dsp \$1;
#X text 56 364 DSP on/off;
#X obj 22 365 tgl 21 0 empty empty empty 0 -11 0 12 #fcfcfc #000000 #000000 0 1;
#X floatatom 186 453 5 0 0 0 - - - 12;
#X floatatom 186 617 12 0 0 0 - - - 16;
#X obj 186 554 * 4;
#X obj 186 514 bpm -samps;
#X text 233 545 4 beats;
#X obj 186 415 bng 21 250 50 0 empty empty empty 0 -11 0 12 #fcfcfc #000000 #000000;
#X obj 25 128 loadbang;
#X floatatom 25 216 5 0 0 0 - - - 16;
#X obj 25 244 * 60;
#X text 71 238 1 min;
#X obj 217 486 s glob-bpm;
#X obj 25 272 s init-length;
#X obj 186 659 s all-len;
#X obj 156 67 bng 21 250 50 0 empty empty empty 0 -11 0 12 #fcfcfc #000000 #000000;
#X text 235 33 sync;
#X text 163 33 clear;
#X obj 235 67 bng 21 250 50 0 empty empty empty 0 -11 0 12 #fcfcfc #000000 #000000;
#X text 233 573 4 bar;
#X obj 186 582 * 4;
#X obj 156 187 r mode;
#X msg 156 222 set \$1;
#X obj 156 364 s mode;
#X obj 157 253 vradio 21 1 0 4 empty empty empty 0 -11 0 12 #fcfcfc #000000 #000000 0;
#X text 193 252 play;
#X text 193 278 rec;
#X text 193 305 clear;
#X text 193 326 sync;
#X obj 156 131 s all-clear;
#X obj 235 131 s all-sync;
#X obj 429 82 sampler-absPres 1 32 0 24;
#X obj 429 290 sampler-absPres 2 33 1 25;
#X obj 821 290 sampler-absPres 4 35 3 27;
#X obj 20 335 loadbang;
#X obj 821 82 sampler-absPres 3 34 2 26;
#N canvas 711 392 1075 649 sendOSC 1;
#X obj 208 295 hsl 179 21 0 127 0 0 empty empty empty -2 -11 0 12 #fcfcfc #000000 #000000 0 1;
#X obj 187 344 i;
#X obj 445 872 tgl 21 0 empty empty empty 0 -11 0 12 #fcfcfc #000000 #000000 0 1;
#X text 471 868 <-- connection status;
#X msg 566 839 connect 192.168.1.29 8000;
#X obj 185 152 inlet~;
#X obj 291 152 inlet~;
#X obj 397 152 inlet~;
#X obj 503 152 inlet~;
#X obj 354 295 hsl 179 21 0 127 0 0 empty empty empty -2 -11 0 12 #fcfcfc #000000 #000000 0 1;
#X obj 333 344 i;
#X obj 500 295 hsl 179 21 0 127 0 0 empty empty empty -2 -11 0 12 #fcfcfc #000000 #000000 0 1;
#X obj 479 344 i;
#X obj 646 295 hsl 179 21 0 127 0 0 empty empty empty -2 -11 0 12 #fcfcfc #000000 #000000 0 1;
#X obj 625 344 i;
#X obj 894 229 loadbang;
#X obj 419 749 tgl 21 0 empty empty empty 0 -11 0 12 #fcfcfc #000000 #000000 0 1;
#X obj 419 790 gate 1 1;
#X msg 424 45 50;
#X msg 566 806 disconnect;
#X obj 897 510 tgl 21 0 empty empty empty 0 -11 0 12 #fcfcfc #000000 #000000 0 1;
#X obj 920 408 loadbang;
#X msg 920 437 connect 192.168.1.255 8000;
#X obj 1134 246 print OSC_IN;
#X obj 1040 340 route Klax_1 Klax_2 Klax_3 Klax_4;
#X obj 1113 487 print;
#X msg 1113 437 connect \$1 8000, f 31;
#X obj 1110 390 tosymbol;
#X msg 894 319 /getIP;
#X obj 445 902 print Klax_1_connected;
#X obj 894 273 del 2000;
#X obj 293 527 list;
#X obj 445 623 prepend set;
#X msg 445 669 /motorAll;
#X obj 133 487 metro 20;
#X obj 293 568 prepend /motorAll;
#X obj 185 223 * 255;
#X obj 291 223 * 255;
#X obj 397 223 * 255;
#X obj 503 223 * 255;
#X obj 200 257 clip 0 255;
#X obj 303 259 clip 0 255;
#X obj 429 260 clip 0 255;
#X obj 531 258 clip 0 255;
#X obj 185 191 snapshot~;
#X obj 390 100 prepend set;
#X obj 291 191 snapshot~;
#X obj 400 190 snapshot~;
#X obj 500 190 snapshot~;
#X obj 420 20 loadbang;
#X obj 90 400 loadbang;
#X msg 94 425 1;
#X obj 210 410 pack 0 0 0 0;
#X obj 1110 282 oscx/OSCroute /ip;
#X obj 1110 210 mrpeach/udpreceive 8001;
#X obj 894 475 mrpeach/udpsend;
#X obj 440 830 mrpeach/udpsend;
#X obj 460 720 prepend send;
#X obj 900 370 prepend send;
#X connect 0 0 1 0;
#X connect 1 0 52 0;
#X connect 2 0 29 0;
#X connect 4 0 56 0;
#X connect 5 0 44 0;
#X connect 6 0 46 0;
#X connect 7 0 47 0;
#X connect 8 0 48 0;
#X connect 9 0 10 0;
#X connect 10 0 52 1;
#X connect 11 0 12 0;
#X connect 12 0 52 2;
#X connect 13 0 14 0;
#X connect 14 0 52 3;
#X connect 15 0 30 0;
#X connect 16 0 17 0;
#X connect 17 0 56 0;
#X connect 18 0 45 0;
#X connect 19 0 56 0;
#X connect 21 0 22 0;
#X connect 22 0 55 0;
#X connect 24 0 27 0;
#X connect 26 0 25 0;
#X connect 26 0 56 0;
#X connect 27 0 26 0;
#X connect 28 0 58 0;
#X connect 30 0 28 0;
#X connect 31 0 35 0;
#X connect 32 0 33 0;
#X connect 34 0 31 0;
#X connect 35 0 32 0;
#X connect 35 0 57 0;
#X connect 36 0 40 0;
#X connect 37 0 41 0;
#X connect 38 0 42 0;
#X connect 39 0 43 0;
#X connect 40 0 0 0;
#X connect 41 0 9 0;
#X connect 42 0 11 0;
#X connect 43 0 13 0;
#X connect 44 0 36 0;
#X connect 45 0 46 0;
#X connect 45 0 47 0;
#X connect 45 0 48 0;
#X connect 45 0 44 0;
#X connect 46 0 37 0;
#X connect 47 0 38 0;
#X connect 48 0 39 0;
#X connect 49 0 18 0;
#X connect 50 0 51 0;
#X connect 51 0 34 0;
#X connect 52 0 31 1;
#X connect 53 0 24 0;
#X connect 54 0 23 0;
#X connect 54 0 53 0;
#X connect 55 0 20 0;
#X connect 56 0 2 0;
#X connect 57 0 17 1;
#X connect 58 0 55 0;
#X restore 450 521 pd sendOSC;
#X obj 230 370 loadbang;
#X msg 220 420 76;
#X connect 0 0 12 0;
#X connect 1 0 0 0;
#X connect 4 0 2 0;
#X connect 5 0 8 0;
#X connect 5 0 15 0;
#X connect 6 0 17 0;
#X connect 7 0 23 0;
#X connect 8 0 7 0;
#X connect 10 0 5 0;
#X connect 11 0 1 0;
#X connect 12 0 13 0;
#X connect 13 0 16 0;
#X connect 18 0 32 0;
#X connect 21 0 33 0;
#X connect 23 0 6 0;
#X connect 24 0 25 0;
#X connect 25 0 27 0;
#X connect 27 0 26 0;
#X connect 34 0 39 0;
#X connect 35 0 39 1;
#X connect 36 0 39 3;
#X connect 37 0 4 0;
#X connect 38 0 39 2;
#X connect 40 0 41 0;
#X connect 41 0 5 0;
