#N canvas 563 88 442 614 10;
#X obj 44 46 tgl 15 0 empty empty Play 17 7 0 10 -262144 -1 -1 1 1
;
#X obj 44 213 f;
#X obj 74 213 + 1;
#X obj 44 423 mscale;
#X obj 44 549 dac~;
#X obj 44 444 mtof;
#X obj 44 108 metro 200;
#X obj 44 255 list store 0 0 0 0 5 5 0 0 7 7 0 0;
#X msg 44 234 get \$1 1;
#X obj 174 45 loadbang;
#X obj 44 528 *~;
#X obj 44 465 osc~;
#X obj 104 213 mod 12;
#X obj 44 339 random 12;
#X obj 44 360 + 48;
#X obj 174 87 s \$0-scale;
#X obj 77 402 r \$0-scale;
#X obj 44 276 s \$0-root;
#X obj 60 381 r \$0-root;
#X obj 59 486 r \$0-start;
#X obj 71 87 s \$0-start;
#X obj 44 318 r \$0-metro;
#X obj 174 423 mscale;
#X obj 174 549 dac~;
#X obj 174 444 mtof;
#X obj 174 528 *~;
#X obj 174 465 osc~;
#X obj 207 402 r \$0-scale;
#X obj 190 381 r \$0-root;
#X obj 189 486 r \$0-start;
#X obj 174 318 r \$0-metro;
#X obj 304 423 mscale;
#X obj 304 549 dac~;
#X obj 304 444 mtof;
#X obj 304 528 *~;
#X obj 304 465 osc~;
#X obj 304 339 random 12;
#X obj 337 402 r \$0-scale;
#X obj 320 381 r \$0-root;
#X obj 319 486 r \$0-start;
#X obj 304 318 r \$0-metro;
#X obj 174 360 + 54;
#X obj 304 360 + 60;
#X msg 174 66 0 4 7;
#X obj 174 339 random 24;
#X obj 44 66 t f f;
#X obj 150 192 r \$0-start;
#X obj 150 213 ==;
#X obj 59 507 * 0.1;
#X obj 189 507 * 0.1;
#X obj 319 507 * 0.1;
#X obj 304 46 tgl 15 0 empty empty empty 17 7 0 10 -262144 -1 -1 1
1;
#X msg 304 66 dsp \$1;
#X obj 304 87 s pd;
#X obj 44 150 s \$0-metro;
#X obj 44 129 t b b;
#X obj 116 150 s \$0-setroot;
#X obj 44 192 r \$0-setroot;
#X connect 0 0 45 0;
#X connect 1 0 2 0;
#X connect 1 0 8 0;
#X connect 2 0 12 0;
#X connect 3 0 5 0;
#X connect 5 0 11 0;
#X connect 6 0 55 0;
#X connect 7 0 17 0;
#X connect 8 0 7 0;
#X connect 9 0 43 0;
#X connect 10 0 4 0;
#X connect 10 0 4 1;
#X connect 11 0 10 0;
#X connect 12 0 1 1;
#X connect 13 0 14 0;
#X connect 14 0 3 0;
#X connect 16 0 3 2;
#X connect 18 0 3 1;
#X connect 19 0 48 0;
#X connect 21 0 13 0;
#X connect 22 0 24 0;
#X connect 24 0 26 0;
#X connect 25 0 23 0;
#X connect 25 0 23 1;
#X connect 26 0 25 0;
#X connect 27 0 22 2;
#X connect 28 0 22 1;
#X connect 29 0 49 0;
#X connect 30 0 44 0;
#X connect 31 0 33 0;
#X connect 33 0 35 0;
#X connect 34 0 32 0;
#X connect 34 0 32 1;
#X connect 35 0 34 0;
#X connect 36 0 42 0;
#X connect 37 0 31 2;
#X connect 38 0 31 1;
#X connect 39 0 50 0;
#X connect 40 0 36 0;
#X connect 41 0 22 0;
#X connect 42 0 31 0;
#X connect 43 0 15 0;
#X connect 44 0 41 0;
#X connect 45 0 6 0;
#X connect 45 1 20 0;
#X connect 46 0 47 0;
#X connect 47 0 12 0;
#X connect 48 0 10 1;
#X connect 49 0 25 1;
#X connect 50 0 34 1;
#X connect 51 0 52 0;
#X connect 52 0 53 0;
#X connect 55 0 54 0;
#X connect 55 1 56 0;
#X connect 57 0 1 0;
