#N canvas 733 172 450 300 12;
#X obj 375 467 vline~;
#X obj 352 580 xfade~ lin;
#N canvas 733 172 450 300 changed 0;
#X obj 485 165 changed, f 23;
#X obj 547 363 tgl 21 0 empty empty empty 0 -11 0 12 #fcfcfc #000000 #000000 0 1;
#X obj 485 199 t b stop 1, f 12;
#X msg 485 291 0;
#X obj 545 393 * 2;
#X obj 545 425 - 1;
#X obj 545 489 vline~;
#X obj 485 116 inlet;
#X obj 545 529 outlet~;
#X msg 545 457 \$1 5;
#X obj 485 245 del 150;
#X obj 622 324 inlet;
#X connect 0 0 2 0;
#X connect 0 1 3 0 32.................cA...b2+++eW....28+++SI....;
#X connect 1 0 4 0;
#X connect 2 0 10 0;
#X connect 2 1 10 0;
#X connect 2 2 1 0;
#X connect 3 0 1 0;
#X connect 4 0 5 0;
#X connect 5 0 9 0;
#X connect 6 0 8 0;
#X connect 7 0 0 0;
#X connect 9 0 6 0;
#X connect 10 0 3 0;
#X connect 11 0 1 0;
#X restore 434 467 pd changed;
#X obj 856 730 xfade~ lin;
#X obj 955 330 prepend speed;
#X msg 375 438 \$1 1;
#N canvas 733 172 450 300 reverse 0;
#X obj 1102 497 gate 2 1;
#X obj 1134 537 * -1;
#X obj 1133 461 f;
#X obj 1091 388 + 1;
#X obj 1091 419 t b i;
#X obj 1093 355 inlet;
#X obj 1022 355 inlet;
#X obj 1102 585 outlet;
#X connect 0 0 7 0;
#X connect 0 1 1 0;
#X connect 1 0 7 0;
#X connect 2 0 0 1;
#X connect 3 0 4 0;
#X connect 4 0 2 0 32.................L....nB....C....p....bA....;
#X connect 4 1 0 0;
#X connect 5 0 3 0;
#X connect 6 0 2 0 32.................LA...7F....S....uA...bE....;
#X restore 955 295 pd reverse;
#X obj 416 688 loadbang;
#X obj 842 400 gate;
#X obj 842 429 t 0 b;
#X obj 375 406 inlet;
#X obj 490 406 inlet;
#X obj 955 213 inlet;
#X obj 1004 213 inlet;
#X obj 856 761 outlet~;
#X text 889 451 sync;
#X text 490 799 sync;
#X obj 799 291 zl.change;
#X obj 842 319 sel 1;
#X msg 845 349 1;
#X obj 889 417 bng 25 250 50 0 empty empty empty 17 7 0 10 #e4e4e4 #4d4d4d #373737;
#X obj 352 801 numbox~ 5 22 100 #E4E4E4 #4D4D4D 10 0 0 0;
#X obj 704 525 bng 25 250 50 0 empty empty empty 17 7 0 10 #e4e4e4 #4d4d4d #373737;
#X obj 535 801 bng 25 250 50 0 empty empty empty 17 7 0 10 #e4e4e4 #4d4d4d #373737;
#X msg 416 716 continue 0;
#X obj 563 406 tgl 41 0 empty empty empty 0 -11 0 12 #fcfcfc #000000 #000000 0 1;
#X obj 955 252 * 100;
#X obj 1094 250 i;
#X msg 1094 281 resize \$1;
#N canvas 733 172 450 300 clearSized 0;
#X obj 309 337 sel 1 0;
#X obj 488 633 i;
#X obj 309 618 ms2samps;
#X obj 309 375 realtime;
#X obj 309 308 tgl 21 0 empty empty empty 0 -11 0 12 #fcfcfc #000000 #000000 0 1;
#X obj 309 250 change;
#X obj 481 375 sel 1;
#X obj 309 280 t f f, f 15;
#X obj 472 469 t b b b;
#X msg 520 533 const 0;
#X obj 295 413 t b b f;
#X obj 67 530 outlet;
#X msg 200 651 0 \, 1;
#X msg 385 543 0 \, 1;
#X obj 520 562 s \$1-track;
#X obj 385 572 s \$1-recplay;
#X obj 309 221 r \$1-rec;
#X obj 200 683 s \$1-recplay;
#X obj 398 699 s \$1-len;
#X obj 520 595 r init-length;
#X obj 191 563 del 50;
#X connect 0 0 3 0;
#X connect 0 1 3 1;
#X connect 1 0 18 0;
#X connect 2 0 18 0;
#X connect 3 0 10 0;
#X connect 4 0 0 0;
#X connect 5 0 7 0;
#X connect 6 0 8 0;
#X connect 7 0 4 0;
#X connect 7 1 6 0;
#X connect 8 0 13 0;
#X connect 8 0 11 0;
#X connect 8 1 1 0;
#X connect 8 2 9 0;
#X connect 9 0 14 0;
#X connect 10 0 11 0;
#X connect 10 1 20 0;
#X connect 10 2 2 0;
#X connect 12 0 17 0;
#X connect 13 0 15 0;
#X connect 16 0 5 0;
#X connect 19 0 1 1;
#X connect 20 0 12 0;
#X restore 1158 598 pd clearSized;
#X obj 1161 633 bng 19 250 50 0 empty empty empty 17 7 0 10 #dfdfdf #000000 #000000;
#X obj 1158 702 outlet;
#X obj 713 310 inlet;
#X obj 594 291 inlet;
#X obj 1201 224 inlet;
#X msg 1201 263 const 0;
#X obj 1014 574 bng 25 250 50 0 empty empty empty 17 7 0 10 #e4e4e4 #4d4d4d #373737;
#X obj 1313 272 inlet;
#X msg 1313 342 0 \, 1;
#X msg 66 406 color 900 \, edit 0 \, style 0 \, width 3 \, vis 1;
#X obj 66 368 loadbang;
#X text 1201 188 clear;
#X text 1094 188 resize;
#X text 1313 223 sync;
#X text 1004 182 reverse;
#X text 939 182 speed;
#X text 713 280 record;
#X text 490 374 punch;
#X text 375 374 input;
#X text 614 403 rec&play;
#X text 594 262 play;
#X text 1158 563 size out;
#X obj 856 525 tabplayer~ -loop 1 \$1-track;
#X obj 352 761 tabwriter~ -loop 1 \$1-track;
#X obj 563 489 tabplayer~ -loop 1 \$1-track;
#X obj 66 449 s \$1-track;
#X obj 1158 664 array size \$1-track;
#X obj 1201 292 s \$1-track;
#X obj 594 329 s \$1-recplay;
#X obj 563 369 r \$1-recplay;
#X obj 713 342 s \$1-rec;
#X obj 1094 310 s \$1-track;
#X obj 1094 224 r \$1-len;
#X obj 377 261 float \$1;
#X floatatom 377 291 4 0 0 0 - - - 36;
#X obj 377 224 loadbang;
#X obj 1081 157 r all-len;
#X connect 0 0 1 1;
#X connect 0 0 3 1;
#X connect 1 0 53 0;
#X connect 2 0 1 2;
#X connect 2 0 3 2;
#X connect 3 0 14 0;
#X connect 4 0 52 0 32.................QB...34+++ej....d9+++CK....;
#X connect 5 0 0 0;
#X connect 6 0 4 0;
#X connect 6 0 17 0;
#X connect 7 0 24 0;
#X connect 8 0 9 0;
#X connect 9 0 8 0 48.................I....z9+++eB....s++++i7+++O.....H++++C....Pz++++;
#X connect 9 1 20 0;
#X connect 9 1 52 0;
#X connect 10 0 5 0;
#X connect 11 0 2 1;
#X connect 12 0 26 0;
#X connect 13 0 6 1;
#X connect 17 1 18 0;
#X connect 18 0 19 0;
#X connect 19 0 8 0;
#X connect 24 0 53 0;
#X connect 25 0 52 0;
#X connect 25 0 54 0;
#X connect 25 0 53 0;
#X connect 26 0 6 0;
#X connect 27 0 28 0;
#X connect 28 0 61 0;
#X connect 29 0 30 0;
#X connect 30 0 56 0;
#X connect 32 0 60 0;
#X connect 33 0 58 0;
#X connect 34 0 35 0;
#X connect 35 0 57 0;
#X connect 37 0 38 0;
#X connect 38 0 52 0;
#X connect 38 0 53 0;
#X connect 38 0 54 0;
#X connect 39 0 55 0;
#X connect 40 0 39 0;
#X connect 52 0 3 0;
#X connect 52 1 36 0;
#X connect 53 1 23 0;
#X connect 54 0 1 0;
#X connect 54 1 22 0;
#X connect 56 0 31 0;
#X connect 59 0 25 0;
#X connect 62 0 27 0;
#X connect 63 0 64 0;
#X connect 65 0 63 0;
#X connect 66 0 27 0;
